<svg width="42" height="42" viewBox="0 0 42 42" fill="none" xmlns="http://www.w3.org/2000/svg">
<path d="M21 31.5237C21.4076 31.5237 21.749 31.3875 22.0243 31.1151C22.2981 30.8427 22.435 30.5048 22.435 30.1016C22.435 29.6999 22.2973 29.3629 22.022 29.0905C21.7467 28.818 21.406 28.6811 21 28.6795C20.594 28.678 20.2533 28.8142 19.978 29.0881C19.7027 29.3621 19.565 29.6991 19.565 30.0993C19.565 30.4994 19.7027 30.8373 19.978 31.1128C20.2533 31.3882 20.594 31.5268 21 31.5237ZM19.8333 23.8846H22.1667V10.0333H19.8333V23.8846ZM21.007 41.9999C18.1043 41.9999 15.3743 41.4551 12.817 40.3655C10.2612 39.2743 8.03755 37.7937 6.146 35.9238C4.25444 34.0539 2.75722 31.8561 1.65433 29.3305C0.551445 26.805 0 24.1047 0 21.2298C0 18.3549 0.551445 15.6538 1.65433 13.1267C2.75567 10.5981 4.24978 8.39803 6.13667 6.52656C8.02356 4.65508 10.2457 3.17375 12.803 2.08257C15.3603 0.991391 18.0903 0.445801 20.993 0.445801C23.8957 0.445801 26.6257 0.991391 29.183 2.08257C31.7388 3.17221 33.9624 4.65123 35.854 6.51963C37.7456 8.38803 39.2428 10.5865 40.3457 13.1152C41.4486 15.6438 42 18.3441 42 21.2159C42 24.0878 41.4493 26.7888 40.348 29.319C39.2467 31.8492 37.7502 34.0492 35.8587 35.9192C33.9671 37.7891 31.7458 39.2704 29.1947 40.3632C26.6436 41.4559 23.9143 42.0015 21.007 41.9999Z" fill="white"/>
</svg>
