<svg width="148" height="230" viewBox="0 0 148 230" fill="none" xmlns="http://www.w3.org/2000/svg">
<path d="M0 11.0274C0 4.93713 4.93439 0 11.0213 0H136.979C143.066 0 148 4.93713 148 11.0274V218.973C148 225.063 143.066 230 136.979 230H11.0213C4.93439 230 0 225.063 0 218.973V11.0274Z" fill="#191919"/>
<path d="M9.44678 22.0549C9.44678 15.9646 14.3812 11.0275 20.4681 11.0275H127.532C133.619 11.0275 138.553 15.9646 138.553 22.0549V207.945C138.553 214.036 133.619 218.973 127.532 218.973H20.4681C14.3812 218.973 9.44678 214.036 9.44678 207.945V22.0549Z" fill="#FCFCA8"/>
<path fill-rule="evenodd" clip-rule="evenodd" d="M16.532 17.3287C16.532 16.8937 16.8844 16.541 17.3192 16.541H130.681C131.116 16.541 131.468 16.8937 131.468 17.3287V212.671C131.468 213.106 131.116 213.459 130.681 213.459H17.3192C16.8844 213.459 16.532 213.106 16.532 212.671V17.3287ZM18.1065 18.1164V211.883H129.894V18.1164H18.1065Z" fill="#191919"/>
<path d="M17.3191 17.3287H25.1914V25.2054H17.3191V17.3287Z" fill="#191919"/>
<path d="M17.3191 204.795H25.1914V212.671H17.3191V204.795Z" fill="#191919"/>
<path d="M122.809 204.795H130.681V212.671H122.809V204.795Z" fill="#191919"/>
<path d="M122.809 17.3287H130.681V25.2054H122.809V17.3287Z" fill="#191919"/>
<path fill-rule="evenodd" clip-rule="evenodd" d="M74.0001 60.6508C37.9136 60.6508 8.65967 89.9209 8.65967 126.027C8.65967 162.134 37.9136 191.404 74.0001 191.404C110.087 191.404 139.341 162.134 139.341 126.027C139.341 89.9209 110.087 60.6508 74.0001 60.6508ZM7.08521 126.027C7.08521 89.0509 37.044 59.0754 74.0001 59.0754C110.956 59.0754 140.915 89.0509 140.915 126.027C140.915 163.004 110.956 192.98 74.0001 192.98C37.044 192.98 7.08521 163.004 7.08521 126.027Z" fill="#191919"/>
<path fill-rule="evenodd" clip-rule="evenodd" d="M74.0001 70.1027C43.1309 70.1027 18.1065 95.141 18.1065 126.027C18.1065 156.914 43.1309 181.952 74.0001 181.952C104.869 181.952 129.894 156.914 129.894 126.027C129.894 95.141 104.869 70.1027 74.0001 70.1027ZM16.532 126.027C16.532 94.271 42.2613 68.5273 74.0001 68.5273C105.739 68.5273 131.468 94.271 131.468 126.027C131.468 157.784 105.739 183.527 74.0001 183.527C42.2613 183.527 16.532 157.784 16.532 126.027Z" fill="#191919"/>
<path fill-rule="evenodd" clip-rule="evenodd" d="M24.4043 37.0204C24.4043 33.5402 27.224 30.719 30.7022 30.719H118.872C122.351 30.719 125.17 33.5402 125.17 37.0204C125.17 40.5005 122.351 43.3217 118.872 43.3217H30.7022C27.224 43.3217 24.4043 40.5005 24.4043 37.0204ZM30.7022 32.2943C28.0935 32.2943 25.9788 34.4103 25.9788 37.0204C25.9788 39.6305 28.0935 41.7464 30.7022 41.7464H118.872C121.481 41.7464 123.596 39.6305 123.596 37.0204C123.596 34.4103 121.481 32.2943 118.872 32.2943H30.7022Z" fill="#191919"/>
<path d="M88.5152 147.983C90.7022 147.035 91.8112 144.501 91.8112 140.452C91.8112 136.402 90.7022 133.868 88.5152 132.92C86.0182 131.836 82.6601 133.179 79.7326 134.953C81.5063 132.036 82.8461 128.673 81.7646 126.175C80.8261 123.986 78.2929 122.877 74.2461 122.877C70.1992 122.877 67.666 123.986 66.7189 126.175C65.6374 128.673 66.9772 132.033 68.7509 134.962C65.8372 133.179 62.474 131.836 59.977 132.92C57.7899 133.868 56.6809 136.402 56.6809 140.452C56.6809 144.501 57.7899 147.035 59.977 147.983C60.611 148.251 61.2933 148.385 61.9815 148.378C64.1203 148.378 66.5622 147.287 68.7527 145.952C66.9772 148.869 65.6357 152.234 66.7189 154.739C67.666 156.917 70.1992 158.027 74.2461 158.027C78.2929 158.027 80.8261 156.917 81.7733 154.729C82.2899 153.554 82.2537 152.185 81.8972 150.766C84.0705 153.903 86.0681 157.57 87.0204 161.38C87.0765 161.603 87.2055 161.801 87.3871 161.943C87.5687 162.085 87.7924 162.162 88.0227 162.162C88.1074 162.162 88.1919 162.151 88.2741 162.131C88.4057 162.098 88.5295 162.039 88.6385 161.958C88.7475 161.877 88.8394 161.776 88.9092 161.659C88.9789 161.543 89.025 161.414 89.0449 161.279C89.0647 161.145 89.0579 161.008 89.0249 160.876C87.723 155.666 84.6853 150.807 81.7612 147.058C83.3662 147.835 85.0125 148.372 86.5107 148.372C87.1985 148.382 87.8808 148.249 88.5152 147.983ZM68.6149 126.996C69.2056 125.634 71.0998 124.944 74.2461 124.944C77.3923 124.944 79.2866 125.634 79.8773 126.996C80.5489 128.547 79.6861 131.278 77.4474 134.683C76.4689 136.154 75.3997 137.563 74.2461 138.901C73.0926 137.564 72.0235 136.157 71.0447 134.688C68.806 131.278 67.9433 128.547 68.6149 126.996ZM60.7984 146.086C59.4362 145.495 58.7474 143.6 58.7474 140.452C58.7474 137.304 59.4362 135.408 60.7984 134.817C61.1807 134.661 61.591 134.586 62.0038 134.595C63.5985 134.595 65.8389 135.505 68.4875 137.249C69.9557 138.227 71.3613 139.297 72.6962 140.452C71.3608 141.606 69.9545 142.676 68.4857 143.655C65.0777 145.895 62.3483 146.758 60.7984 146.086ZM79.8773 153.907C79.2866 155.27 77.3923 155.959 74.2461 155.959C71.0998 155.959 69.2056 155.27 68.6149 153.907C67.9433 152.356 68.806 149.625 71.0447 146.22C72.0229 144.749 73.0921 143.34 74.2461 142.002C75.3998 143.339 76.469 144.746 77.4474 146.215C79.6861 149.625 80.5489 152.354 79.8773 153.907ZM80.0116 143.655C78.541 142.676 77.133 141.606 75.7959 140.452C77.1314 139.297 78.5376 138.227 80.0064 137.249C83.4092 135.009 86.1387 134.147 87.6886 134.817C89.0559 135.408 89.7447 137.304 89.7447 140.452C89.7447 143.6 89.0559 145.495 87.6937 146.086C86.1439 146.758 83.4144 145.895 80.0116 143.655Z" fill="#191919"/>
<path d="M91.0017 108.675C91.0017 111.673 92.2833 114.515 95.0198 114.515C97.7216 114.515 99.0032 111.673 99.0032 108.675C99.0032 105.695 97.7216 102.853 95.0198 102.853C92.2833 102.853 91.0017 105.695 91.0017 108.675ZM95.0198 102.073C97.964 102.073 100.683 104.447 100.683 108.675C100.683 112.782 97.964 115.277 95.0198 115.277C92.0409 115.277 89.3044 112.903 89.3044 108.675C89.3044 104.586 92.0582 102.073 95.0198 102.073Z" fill="#191919"/>
<path d="M87.8655 102.974L86.0643 103.164C86.0297 104.811 86.0297 106.491 86.0297 108.207V109.16C86.0297 110.841 86.0297 112.522 86.0643 114.203L87.8655 114.376V115H82.8603V114.376L84.5576 114.203C84.5922 112.539 84.5749 110.858 84.5922 109.212L84.6095 103.996L80.2451 115H79.535L74.9974 104.065C75.032 105.712 75.084 107.999 75.084 108.016V114.168L76.764 114.376V115H72.59V114.376L74.27 114.168L74.2873 103.182L72.5381 102.974V102.367H75.7594L80.1758 113.111L84.4363 102.367H87.8655V102.974Z" fill="#191919"/>
<path d="M70.9036 102.974L69.1024 103.164C69.0504 104.811 69.0504 106.491 69.0504 108.207V109.16C69.0504 110.824 69.0504 112.522 69.1024 114.185L70.9036 114.376V115H65.7598V114.376L67.561 114.185C67.6129 112.539 67.6129 110.858 67.6129 109.16V108.207C67.6129 106.526 67.6129 104.828 67.561 103.164L65.7598 102.974V102.367H70.9036V102.974Z" fill="#191919"/>
<path d="M63.9671 102.974L62.1659 103.164C62.1313 104.811 62.1313 106.491 62.1313 108.207V109.16C62.1313 110.841 62.1313 112.522 62.1659 114.203L63.9671 114.376V115H58.9619V114.376L60.6591 114.203C60.6938 112.539 60.6765 110.858 60.6938 109.212L60.7111 103.996L56.3467 115H55.6366L51.099 104.065C51.1336 105.712 51.1856 107.999 51.1856 108.016V114.168L52.8655 114.376V115H48.6916V114.376L50.3716 114.168L50.3889 103.182L48.6396 102.974V102.367H51.861L56.2774 113.111L60.5379 102.367H63.9671V102.974Z" fill="#191919"/>
</svg>
