<svg width="433" height="272" viewBox="0 0 433 272" fill="none" xmlns="http://www.w3.org/2000/svg">
<rect width="433" height="272" fill="#191919" fill-opacity="0.7"/>
<path d="M226.188 121.65V117.75C226.188 112.29 221.925 108 216.5 108C211.075 108 206.812 112.29 206.812 117.75V121.65C203.519 121.65 201 124.185 201 127.5V141.15C201 144.465 203.519 147 206.812 147H226.188C229.481 147 232 144.465 232 141.15V127.5C232 124.185 229.481 121.65 226.188 121.65ZM210.688 117.75C210.688 114.435 213.206 111.9 216.5 111.9C219.794 111.9 222.312 114.435 222.312 117.75V121.65H210.688V117.75Z" fill="white"/>
<path d="M114.096 161.464L114.194 161.142C114.222 161.086 114.264 161.058 114.362 161.058C114.838 161.072 115.678 161.24 116.028 161.408C116.168 161.45 116.21 161.548 116.196 161.674L116.168 162.36V171.726C116.168 172.496 116.042 173.756 115.832 174.512H115.272C115.216 173.966 115.188 172.664 115.188 172.062V162.136C114.964 161.856 114.544 161.618 114.096 161.464ZM111.758 162.43L111.87 162.108C111.884 162.066 111.926 162.024 112.038 162.024C112.472 162.052 113.242 162.206 113.578 162.36C113.69 162.416 113.732 162.486 113.732 162.626L113.704 163.228V170.774C113.704 171.544 113.578 172.762 113.382 173.49H112.836C112.766 172.93 112.752 171.698 112.752 171.11V166.784C112.458 166.798 112.122 166.826 111.94 166.84C111.716 166.854 111.394 166.91 111.184 166.98C111.03 166.91 110.876 166.826 110.736 166.728C110.68 167.512 110.61 168.31 110.526 169.038L110.792 169.15C110.862 169.178 110.89 169.234 110.89 169.304C110.89 169.5 110.82 169.668 110.736 169.752L106.816 169.794C106.788 170.018 106.732 170.228 106.634 170.41H106.102C106.046 170.172 106.004 169.836 105.976 169.57L105.668 164.572C105.528 164.418 105.276 164.25 104.996 164.152L105.066 163.858C105.08 163.816 105.122 163.788 105.192 163.788C105.612 163.788 106.368 163.844 106.76 163.914C107.502 163.914 108.972 163.9 109.714 163.844L110.19 163.592C110.232 163.55 110.33 163.55 110.4 163.592C110.568 163.662 110.862 163.844 110.974 163.928C111.03 163.97 111.044 164.012 111.002 164.096L110.848 164.558C110.834 165.09 110.806 165.664 110.764 166.252C110.946 166.266 111.142 166.28 111.338 166.28C111.674 166.28 112.276 166.266 112.752 166.224V163.046C112.556 162.794 112.164 162.57 111.758 162.43ZM106.746 164.53L106.844 169.178C107.628 169.192 108.888 169.164 109.476 169.136L109.756 169.052L109.784 164.46C108.846 164.46 107.684 164.488 106.746 164.53ZM123.782 168.464L124.3 168.73C124.468 169.024 124.678 169.486 124.776 169.724C124.832 169.906 124.832 170.032 124.79 170.116C124.692 170.256 124.44 170.34 124.3 170.27C124.216 170.242 124.104 170.116 124.02 170.004L121.878 167.204C121.136 168.422 120.086 169.626 118.77 170.662C118.714 170.69 118.658 170.704 118.616 170.662L118.448 170.522C118.42 170.48 118.42 170.438 118.476 170.382C120.282 168.506 121.542 166.168 121.92 164.208C121.78 163.984 121.444 163.718 121.094 163.536L121.262 163.228C121.29 163.186 121.318 163.158 121.416 163.172C121.934 163.256 122.648 163.48 122.942 163.662C123.054 163.718 123.11 163.802 123.11 163.928C123.11 164.04 123.096 164.152 123.068 164.236C122.914 165.006 122.634 165.79 122.228 166.574L123.782 168.464ZM125.196 162.472L125.308 162.136C125.322 162.094 125.364 162.066 125.462 162.066C125.91 162.08 126.666 162.234 127.016 162.388C127.114 162.444 127.17 162.528 127.17 162.654L127.128 163.27V170.802C127.128 171.572 127.002 172.79 126.806 173.518H126.26C126.204 172.958 126.19 171.726 126.19 171.138V166.882C125.868 166.882 125.49 166.896 125.308 166.924C125.07 166.952 124.706 167.036 124.454 167.134C124.09 166.98 123.768 166.798 123.502 166.588C123.46 166.532 123.446 166.504 123.46 166.448L123.544 166.294C123.866 166.336 124.272 166.35 124.622 166.35C124.972 166.35 125.672 166.336 126.19 166.308V163.074C125.98 162.822 125.602 162.598 125.196 162.472ZM127.618 161.464L127.716 161.142C127.744 161.086 127.786 161.058 127.884 161.058C128.36 161.072 129.2 161.24 129.55 161.408C129.69 161.45 129.732 161.548 129.718 161.674L129.69 162.36V171.726C129.69 172.496 129.564 173.756 129.354 174.512H128.794C128.738 173.966 128.71 172.664 128.71 172.062V162.136C128.486 161.856 128.066 161.618 127.618 161.464ZM138.885 168.674L139.515 168.912C139.739 169.22 140.005 169.696 140.131 169.962C140.215 170.144 140.243 170.27 140.201 170.354C140.131 170.522 139.879 170.62 139.711 170.564C139.627 170.55 139.487 170.424 139.403 170.326L136.799 167.652C135.651 168.968 134.181 170.2 132.585 171.138C132.529 171.18 132.487 171.18 132.459 171.152L132.277 170.998C132.235 170.956 132.235 170.928 132.291 170.872C134.867 168.926 136.827 166.434 137.695 164.194C136.911 164.18 135.217 164.208 134.839 164.236C134.573 164.25 134.041 164.348 133.775 164.446C133.411 164.306 133.005 164.082 132.725 163.844C132.683 163.816 132.669 163.76 132.683 163.732L132.767 163.564C133.131 163.62 133.621 163.648 133.957 163.648C134.489 163.648 137.219 163.62 137.877 163.578L138.325 163.354C138.409 163.34 138.507 163.34 138.563 163.354C138.745 163.424 139.081 163.592 139.221 163.662C139.277 163.704 139.277 163.774 139.235 163.83L138.955 164.222C138.591 165.174 138.003 166.168 137.233 167.134L138.885 168.674ZM140.439 161.464L140.551 161.128C140.565 161.086 140.593 161.058 140.705 161.058C141.223 161.072 142.091 161.254 142.497 161.422C142.623 161.464 142.665 161.562 142.665 161.702L142.637 162.444V171.586C142.637 172.398 142.497 173.714 142.301 174.512H141.713C141.671 173.924 141.643 172.552 141.643 171.936V162.178C141.391 161.884 140.943 161.632 140.439 161.464ZM159.432 167.694L159.936 167.484C160.44 167.498 161.182 167.582 161.504 167.694C161.602 167.722 161.686 167.806 161.686 167.918C161.686 168.156 161.518 168.366 161.392 168.436C161.014 168.394 160.188 168.366 159.768 168.366C158.788 168.352 152.376 168.436 151.634 168.478C151.284 168.506 150.57 168.632 150.234 168.744C149.73 168.59 149.212 168.296 148.862 168.016C148.82 167.974 148.806 167.932 148.82 167.89L148.918 167.694C149.38 167.778 150.038 167.834 150.472 167.834C151.326 167.848 158.452 167.764 159.432 167.694ZM155.232 169.626C157.038 169.626 158.326 170.606 158.326 172.02C158.326 173.476 157.038 174.484 155.232 174.484C153.412 174.484 152.124 173.476 152.124 172.02C152.124 170.606 153.412 169.626 155.232 169.626ZM155.232 173.756C156.422 173.756 157.29 173.098 157.29 172.02C157.29 170.928 156.422 170.256 155.232 170.256C154.028 170.256 153.16 170.928 153.16 172.02C153.16 173.098 154.028 173.756 155.232 173.756ZM151.662 165.258V162.906C151.452 162.738 151.13 162.598 150.78 162.514L150.85 162.192C150.864 162.15 150.906 162.122 151.004 162.122C151.41 162.122 152.334 162.164 152.712 162.234C153.776 162.248 156.59 162.206 157.332 162.164L157.752 161.968C158.13 161.954 158.718 161.996 159.04 162.038C159.152 162.066 159.222 162.136 159.222 162.234C159.222 162.458 159.152 162.626 159.082 162.696C159.026 162.752 158.956 162.766 158.872 162.766L152.684 162.85V165.426C152.684 165.678 152.768 165.762 153.006 165.762C153.944 165.776 156.66 165.734 157.486 165.678L157.906 165.468C158.312 165.468 158.928 165.51 159.222 165.552C159.32 165.58 159.39 165.636 159.39 165.748C159.39 165.972 159.306 166.126 159.25 166.182C159.208 166.224 159.152 166.252 159.082 166.252L152.908 166.35C151.998 166.364 151.662 166 151.662 165.258ZM172.954 168.478L173.458 168.268C173.962 168.282 174.704 168.366 175.026 168.478C175.124 168.506 175.208 168.59 175.208 168.702C175.208 168.94 175.04 169.164 174.914 169.22C174.536 169.178 173.71 169.15 173.29 169.15C172.31 169.136 165.898 169.22 165.156 169.262C164.806 169.29 164.092 169.43 163.756 169.542C163.252 169.374 162.734 169.094 162.384 168.8C162.342 168.772 162.328 168.73 162.342 168.674L162.44 168.478C162.902 168.562 163.56 168.618 163.994 168.618C164.414 168.618 166.318 168.604 168.278 168.576V167.036L166.15 167.064C165.408 167.05 165.184 166.812 165.184 166.196V164.838C164.988 164.684 164.694 164.544 164.372 164.488L164.428 164.222C164.442 164.18 164.484 164.152 164.568 164.152C164.96 164.152 165.87 164.18 166.234 164.222C167.298 164.222 170.252 164.18 170.826 164.138L171.05 164.068C171.092 163.718 171.106 162.878 171.092 162.542C170.14 162.528 167.452 162.584 166.878 162.612C166.626 162.626 166.08 162.724 165.716 162.822C165.268 162.668 164.848 162.43 164.54 162.206C164.484 162.15 164.484 162.108 164.498 162.066L164.582 161.912C164.96 161.996 165.534 162.038 165.884 162.038C166.64 162.052 170.294 161.982 171.19 161.94L171.596 161.744C171.666 161.716 171.75 161.716 171.834 161.744C171.96 161.814 172.254 161.968 172.352 162.038C172.422 162.094 172.422 162.164 172.38 162.22L172.226 162.556C172.198 162.99 172.044 163.718 171.932 164.082L172.212 164.208C172.268 164.236 172.296 164.278 172.296 164.334C172.296 164.474 172.226 164.614 172.156 164.67L166.206 164.754V166.252C166.206 166.42 166.262 166.49 166.458 166.49C167.62 166.49 170.28 166.448 171.12 166.392L171.512 166.182C171.904 166.168 172.478 166.21 172.73 166.266C172.842 166.294 172.898 166.35 172.898 166.448C172.898 166.672 172.828 166.84 172.758 166.896C172.716 166.952 172.66 166.966 172.59 166.966L169.272 167.022V168.562C170.98 168.534 172.534 168.506 172.954 168.478ZM171.344 170.41L171.736 170.228C171.792 170.2 171.89 170.2 171.946 170.228C172.1 170.312 172.38 170.48 172.492 170.564C172.534 170.606 172.534 170.648 172.506 170.718L172.338 171.152L172.31 172.58C172.31 173.182 172.198 174.106 172.03 174.638H171.414C171.358 174.176 171.33 173.322 171.33 172.832V171.082C170.294 171.068 167.452 171.096 166.864 171.138C166.542 171.152 165.926 171.25 165.632 171.362C165.184 171.208 164.736 170.97 164.414 170.718C164.358 170.676 164.344 170.634 164.372 170.578L164.47 170.396C164.89 170.466 165.45 170.508 165.828 170.508C166.528 170.508 170.462 170.452 171.344 170.41ZM183.42 161.254L183.518 161.128C184.862 161.352 186.346 161.394 187.41 161.38C187.522 161.38 187.592 161.422 187.62 161.506C187.676 161.632 187.662 161.94 187.578 162.038C187.536 162.108 187.466 162.136 187.382 162.136C186.556 162.136 185.352 162.164 184.694 162.22C184.568 162.234 184.498 162.22 184.4 162.178C184.092 162.01 183.7 161.688 183.434 161.38C183.406 161.324 183.406 161.296 183.42 161.254ZM189.09 163.032L189.566 162.822C189.986 162.836 190.616 162.906 190.896 163.004C190.98 163.046 191.036 163.116 191.036 163.186C191.036 163.438 190.896 163.634 190.784 163.69C190.504 163.648 189.734 163.648 189.412 163.648C188.642 163.648 183.77 163.69 183.028 163.732C182.748 163.746 182.202 163.858 181.936 163.942C181.516 163.816 181.04 163.55 180.718 163.284C180.676 163.256 180.676 163.214 180.69 163.172L180.774 162.99C181.208 163.074 181.81 163.13 182.146 163.13C182.888 163.144 188.264 163.074 189.09 163.032ZM187.984 166.322C187.984 165.398 187.074 164.838 185.87 164.838C184.666 164.838 183.756 165.398 183.756 166.322C183.756 167.26 184.666 167.806 185.87 167.806C187.074 167.806 187.984 167.26 187.984 166.322ZM182.748 166.322C182.748 165.048 184.064 164.18 185.87 164.18C187.676 164.18 188.992 165.048 188.992 166.322C188.992 167.61 187.676 168.478 185.87 168.478C184.064 168.478 182.748 167.61 182.748 166.322ZM190.084 169.304L190.588 169.08C191.092 169.108 191.834 169.192 192.156 169.29C192.254 169.332 192.338 169.416 192.338 169.528C192.338 169.766 192.17 169.976 192.044 170.046C191.666 170.004 190.84 169.976 190.42 169.976C189.944 169.976 188.18 169.99 186.416 170.004V171.628C186.416 172.356 186.276 173.728 186.094 174.484H185.506C185.464 173.868 185.422 172.58 185.422 171.936V170.018C183.924 170.046 182.594 170.074 182.286 170.088C181.936 170.116 181.222 170.242 180.886 170.354C180.382 170.2 179.864 169.906 179.514 169.626C179.472 169.584 179.458 169.542 179.472 169.5L179.57 169.29C180.032 169.388 180.69 169.444 181.124 169.444C181.978 169.458 189.104 169.36 190.084 169.304ZM206.669 173.448L207.075 173.238C207.453 173.224 208.027 173.266 208.293 173.322C208.391 173.35 208.475 173.42 208.475 173.518C208.475 173.756 208.377 173.938 208.321 173.994C208.265 174.05 208.209 174.064 208.139 174.064L201.839 174.092C201.069 174.092 200.817 173.84 200.817 173.21V171.866C200.635 171.698 200.341 171.572 200.033 171.516L200.075 171.25C200.089 171.208 200.145 171.18 200.229 171.18C200.607 171.18 201.517 171.208 201.881 171.25C202.763 171.25 205.577 171.208 206.137 171.18L206.375 171.11C206.403 170.746 206.417 169.934 206.403 169.612C205.535 169.598 202.861 169.64 202.301 169.668C202.035 169.682 201.517 169.766 201.181 169.878C200.747 169.724 200.355 169.5 200.047 169.276C199.991 169.234 199.991 169.192 200.005 169.136L200.089 168.996C200.467 169.066 200.999 169.108 201.349 169.108C202.091 169.108 205.577 169.066 206.459 169.024L206.865 168.828C206.935 168.8 207.019 168.8 207.103 168.828C207.229 168.898 207.509 169.038 207.635 169.108C207.691 169.15 207.691 169.22 207.663 169.304L207.495 169.626C207.467 170.046 207.327 170.788 207.215 171.138L207.467 171.264C207.523 171.292 207.551 171.334 207.551 171.376C207.551 171.53 207.495 171.67 207.425 171.74L201.853 171.796V173.238C201.853 173.406 201.923 173.49 202.091 173.49C203.141 173.504 205.829 173.49 206.669 173.448ZM207.327 168.422H206.739C206.669 168.016 206.655 167.19 206.655 166.644C206.137 166.63 205.423 166.658 205.101 166.7C204.849 166.728 204.485 166.798 204.233 166.896C203.911 166.77 203.617 166.602 203.379 166.434C202.875 167.288 201.881 167.848 200.677 167.848C198.899 167.848 197.597 166.686 197.597 165.104C197.597 163.536 198.899 162.374 200.677 162.374C202.427 162.374 203.729 163.536 203.729 165.104C203.729 165.454 203.659 165.79 203.547 166.084C203.813 166.112 204.121 166.126 204.387 166.126C204.849 166.126 205.955 166.098 206.655 166.056V163.914C206.235 163.914 205.731 163.914 205.507 163.942C205.241 163.97 204.891 164.054 204.625 164.138C204.247 163.984 203.911 163.788 203.645 163.578C203.603 163.536 203.589 163.494 203.603 163.452L203.687 163.298C204.023 163.34 204.429 163.368 204.779 163.368C205.185 163.368 206.025 163.354 206.655 163.312V162.178C206.417 161.884 205.969 161.632 205.479 161.464L205.577 161.128C205.591 161.086 205.633 161.058 205.745 161.058C206.249 161.072 207.117 161.254 207.523 161.422C207.635 161.464 207.691 161.562 207.691 161.702L207.649 162.43V166.21C207.649 167.036 207.523 167.932 207.327 168.422ZM198.633 165.104C198.633 166.308 199.515 167.092 200.677 167.092C201.839 167.092 202.721 166.308 202.721 165.104C202.721 163.914 201.839 163.116 200.677 163.116C199.515 163.116 198.633 163.914 198.633 165.104ZM221.325 165.286L221.773 165.02C222.179 165.006 222.753 165.034 223.005 165.09C223.117 165.132 223.201 165.216 223.201 165.328C223.215 165.58 223.131 165.762 223.033 165.832C222.977 165.874 222.865 165.902 222.767 165.902L220.331 165.944V167.05C220.331 167.904 220.219 168.842 220.009 169.36H219.421C219.379 168.982 219.351 168.268 219.337 167.722C217.293 168.366 214.563 168.828 212.687 168.968C212.533 168.982 212.365 168.982 212.225 168.982C211.791 168.982 211.483 168.716 211.357 168.31C211.315 168.184 211.287 167.96 211.287 167.68V165.888C211.077 165.734 210.783 165.608 210.461 165.538L210.517 165.258C210.531 165.202 210.573 165.174 210.657 165.174C211.049 165.174 211.959 165.188 212.337 165.23C213.051 165.216 214.941 165.174 215.375 165.132L215.613 165.076C215.641 164.656 215.641 163.494 215.613 163.102C214.997 163.102 213.149 163.158 212.771 163.172C212.505 163.2 212.043 163.284 211.735 163.382C211.357 163.228 210.979 163.018 210.699 162.78C210.643 162.738 210.643 162.696 210.657 162.654L210.755 162.472C211.105 162.542 211.595 162.57 211.931 162.57C212.463 162.57 214.997 162.528 215.669 162.486L216.061 162.276C216.131 162.248 216.229 162.248 216.299 162.276C216.439 162.346 216.733 162.528 216.845 162.612C216.901 162.668 216.901 162.71 216.873 162.794L216.719 163.172C216.705 163.69 216.579 164.642 216.467 165.09L216.677 165.23C216.747 165.272 216.775 165.314 216.775 165.356C216.775 165.51 216.705 165.65 216.649 165.706L212.309 165.832V167.918C212.309 168.072 212.379 168.156 212.561 168.156C214.367 168.114 217.391 167.736 219.337 167.19V162.178C219.099 161.884 218.651 161.632 218.161 161.464L218.273 161.128C218.287 161.086 218.315 161.058 218.427 161.058C218.931 161.072 219.799 161.254 220.205 161.422C220.331 161.464 220.373 161.562 220.373 161.702L220.331 162.43V165.328L221.325 165.286ZM219.155 169.948L219.603 169.738C219.673 169.71 219.771 169.71 219.827 169.738C219.995 169.808 220.303 169.948 220.415 170.032C220.457 170.06 220.457 170.116 220.443 170.186L220.303 170.676C220.247 171.474 220.135 172.398 219.967 173.238L220.233 173.35C220.289 173.378 220.331 173.434 220.331 173.504C220.331 173.7 220.247 173.882 220.149 173.952L215.025 174.036C214.983 174.19 214.927 174.302 214.857 174.414H214.297C214.227 174.232 214.171 173.98 214.157 173.742L213.919 170.662C213.765 170.508 213.485 170.34 213.205 170.242L213.275 169.962C213.289 169.92 213.331 169.906 213.401 169.906C213.821 169.906 214.563 169.976 214.969 170.046C215.977 170.032 218.147 170.004 219.155 169.948ZM219.169 173.238L219.225 170.606C217.881 170.592 216.299 170.648 214.983 170.69L215.053 173.392C216.145 173.392 218.007 173.364 218.889 173.308L219.169 173.238ZM225.592 162.5L225.676 162.374C226.964 162.584 228.308 162.626 229.302 162.626C229.428 162.626 229.498 162.654 229.526 162.752C229.582 162.892 229.554 163.186 229.47 163.298C229.414 163.368 229.358 163.382 229.274 163.382C228.518 163.382 227.398 163.424 226.754 163.466C226.628 163.48 226.572 163.466 226.474 163.41C226.194 163.256 225.83 162.934 225.592 162.626C225.564 162.57 225.564 162.528 225.592 162.5ZM227.832 170.452C228.84 170.452 229.694 169.794 229.694 168.688C229.694 167.582 228.84 166.924 227.832 166.924C226.824 166.924 225.97 167.582 225.97 168.688C225.97 169.794 226.824 170.452 227.832 170.452ZM227.832 166.238C229.386 166.238 230.702 167.218 230.702 168.688C230.702 170.158 229.386 171.138 227.832 171.138C226.278 171.138 224.962 170.158 224.962 168.688C224.962 167.218 226.278 166.238 227.832 166.238ZM230.1 164.6L230.534 164.404C230.912 164.404 231.5 164.488 231.766 164.572C231.85 164.6 231.906 164.67 231.906 164.74C231.906 165.006 231.752 165.216 231.64 165.286C231.374 165.244 230.702 165.23 230.394 165.23C229.834 165.23 226.292 165.286 225.76 165.328C225.508 165.342 224.99 165.44 224.738 165.538C224.36 165.398 223.912 165.132 223.618 164.88C223.562 164.838 223.562 164.796 223.59 164.754L223.674 164.586C224.08 164.656 224.626 164.698 224.948 164.698C225.536 164.712 229.47 164.642 230.1 164.6ZM234.846 167.386L235.294 167.12C235.7 167.106 236.274 167.134 236.526 167.19C236.638 167.218 236.722 167.316 236.722 167.428C236.736 167.666 236.652 167.862 236.554 167.918C236.498 167.974 236.386 167.988 236.288 167.988L233.852 168.03V171.586C233.852 172.398 233.726 173.714 233.53 174.512H232.942C232.9 173.924 232.858 172.552 232.858 171.936V162.178C232.62 161.884 232.172 161.632 231.668 161.464L231.78 161.128C231.794 161.086 231.822 161.058 231.934 161.058C232.438 161.072 233.32 161.254 233.726 161.422C233.852 161.464 233.894 161.562 233.894 161.702L233.852 162.444V167.428L234.846 167.386ZM247.108 173.434L247.514 173.224C247.892 173.224 248.466 173.252 248.732 173.322C248.83 173.336 248.914 173.406 248.914 173.504C248.914 173.756 248.816 173.924 248.76 173.98C248.704 174.036 248.648 174.05 248.578 174.05L242.264 174.078C241.508 174.078 241.27 173.826 241.27 173.21V171.88C241.088 171.712 240.794 171.586 240.486 171.53L240.528 171.264C240.542 171.222 240.584 171.194 240.668 171.194C241.06 171.194 241.97 171.222 242.32 171.264C243.174 171.264 246.044 171.222 246.604 171.194L246.828 171.124C246.856 170.774 246.87 169.948 246.856 169.612C246.002 169.598 243.328 169.64 242.768 169.668C242.502 169.682 241.984 169.766 241.648 169.878C241.214 169.724 240.822 169.5 240.514 169.276C240.458 169.234 240.458 169.192 240.472 169.136L240.556 168.996C240.934 169.066 241.48 169.108 241.816 169.108C242.558 169.108 246.044 169.066 246.912 169.024L247.332 168.828C247.388 168.8 247.486 168.8 247.556 168.828C247.696 168.898 247.976 169.038 248.102 169.108C248.158 169.15 248.158 169.22 248.13 169.304L247.962 169.626C247.934 170.06 247.794 170.788 247.682 171.152L247.934 171.278C247.99 171.306 248.004 171.348 248.004 171.39C248.004 171.544 247.948 171.684 247.892 171.74L242.292 171.81V173.224C242.292 173.406 242.376 173.476 242.544 173.476C243.622 173.49 246.268 173.476 247.108 173.434ZM244.574 167.834L241.802 165.314C240.906 166.574 239.604 167.764 238.022 168.702C237.952 168.758 237.896 168.758 237.868 168.716L237.714 168.576C237.672 168.534 237.686 168.492 237.742 168.436C239.702 166.896 241.2 164.894 241.76 163.144C241.634 162.878 241.298 162.57 240.948 162.374L241.116 162.08C241.144 162.038 241.186 162.024 241.27 162.038C241.76 162.122 242.502 162.416 242.782 162.598C242.894 162.654 242.95 162.752 242.95 162.864C242.95 162.976 242.95 163.088 242.922 163.158C242.754 163.69 242.502 164.236 242.166 164.754L243.986 166.28L244.574 166.476C244.812 166.756 245.12 167.19 245.26 167.414C245.344 167.596 245.372 167.722 245.344 167.806C245.288 167.974 245.05 168.086 244.896 168.044C244.812 168.03 244.672 167.918 244.574 167.834ZM247.094 166.448V162.178C246.842 161.884 246.394 161.632 245.904 161.464L246.016 161.128C246.03 161.086 246.058 161.058 246.17 161.058C246.674 161.072 247.556 161.254 247.948 161.422C248.074 161.464 248.116 161.562 248.116 161.702L248.088 162.43V166.126C248.088 166.952 247.962 167.848 247.766 168.352H247.164C247.108 167.89 247.094 166.952 247.094 166.448ZM255.657 167.148L255.503 166.98C255.475 166.938 255.489 166.882 255.545 166.854C257.855 165.706 259.675 164.082 260.515 162.528C260.375 162.332 260.081 162.08 259.773 161.926L259.941 161.646C259.983 161.59 260.039 161.576 260.137 161.59C260.641 161.66 261.355 161.856 261.649 162.024C261.789 162.094 261.831 162.192 261.831 162.318C261.831 162.458 261.789 162.57 261.747 162.64C261.551 163.004 261.299 163.368 261.019 163.704L263.763 165.048L264.715 165.202C265.051 165.412 265.499 165.748 265.709 165.93C265.863 166.07 265.919 166.196 265.919 166.28C265.919 166.462 265.723 166.63 265.569 166.644C265.471 166.644 265.303 166.588 265.177 166.518L260.585 164.194C259.409 165.412 257.743 166.448 255.797 167.148C255.741 167.176 255.699 167.176 255.657 167.148ZM264.911 168.38L265.415 168.156C265.919 168.17 266.661 168.254 266.983 168.366C267.081 168.394 267.165 168.478 267.165 168.604C267.165 168.842 266.997 169.052 266.871 169.122C266.493 169.08 265.667 169.052 265.247 169.052C264.771 169.052 263.007 169.052 261.243 169.08V171.544C261.243 172.286 261.103 173.658 260.907 174.414H260.319C260.277 173.784 260.249 172.51 260.249 171.866V169.094C258.751 169.108 257.421 169.136 257.113 169.164C256.763 169.192 256.049 169.318 255.713 169.43C255.209 169.262 254.691 168.982 254.341 168.688C254.299 168.66 254.285 168.618 254.299 168.562L254.397 168.366C254.859 168.45 255.517 168.506 255.951 168.52C256.805 168.534 263.931 168.436 264.911 168.38ZM281.355 167.022V162.178C281.103 161.884 280.655 161.632 280.165 161.464L280.277 161.128C280.291 161.086 280.319 161.058 280.431 161.058C280.935 161.072 281.817 161.254 282.209 161.422C282.335 161.464 282.377 161.562 282.377 161.702L282.349 162.43V166.7C282.349 167.54 282.223 168.464 282.013 169.01H281.425C281.369 168.548 281.355 167.54 281.355 167.022ZM275.517 163.116C274.341 163.116 273.445 163.9 273.445 165.16C273.445 166.42 274.341 167.19 275.517 167.19C276.707 167.19 277.589 166.42 277.589 165.16C277.589 163.9 276.707 163.116 275.517 163.116ZM275.517 167.96C273.725 167.96 272.409 166.798 272.409 165.16C272.409 163.522 273.725 162.374 275.517 162.374C277.295 162.374 278.597 163.522 278.597 165.16C278.597 166.798 277.295 167.96 275.517 167.96ZM277.561 173L276.287 171.558C275.545 172.594 274.439 173.56 273.081 174.33C273.011 174.386 272.969 174.386 272.927 174.344L272.773 174.218C272.717 174.162 272.731 174.134 272.801 174.078C274.313 172.916 275.503 171.446 275.979 170.13C275.839 169.934 275.531 169.682 275.209 169.528L275.377 169.22C275.405 169.178 275.447 169.164 275.545 169.178C276.021 169.248 276.679 169.458 276.959 169.626C277.071 169.682 277.113 169.766 277.113 169.892C277.113 170.004 277.085 170.102 277.057 170.172C276.945 170.452 276.805 170.732 276.637 171.012L277.477 171.824L277.883 172.02C278.009 172.23 278.135 172.538 278.205 172.734C278.233 172.846 278.247 172.93 278.205 173C278.149 173.14 277.967 173.224 277.827 173.196C277.743 173.182 277.645 173.098 277.561 173ZM282.293 172.398L282.867 172.678C283.049 172.972 283.259 173.392 283.343 173.63C283.413 173.798 283.413 173.896 283.385 173.98C283.301 174.12 283.091 174.218 282.937 174.162C282.867 174.148 282.741 174.036 282.657 173.938L280.697 171.684C279.941 172.762 278.863 173.756 277.519 174.582C277.435 174.624 277.407 174.624 277.365 174.582L277.211 174.456C277.155 174.414 277.169 174.372 277.225 174.316C278.807 173.028 279.997 171.404 280.487 169.976C280.361 169.738 280.039 169.444 279.703 169.248L279.871 168.954C279.899 168.884 279.941 168.87 280.025 168.884C280.515 168.996 281.215 169.276 281.481 169.458C281.593 169.542 281.635 169.626 281.635 169.738C281.635 169.85 281.607 169.948 281.579 170.018C281.439 170.396 281.271 170.774 281.047 171.138L282.293 172.398ZM295.563 167.456L296.067 167.232C296.571 167.26 297.313 167.344 297.635 167.442C297.733 167.484 297.817 167.568 297.817 167.68C297.817 167.918 297.649 168.128 297.523 168.198C297.145 168.156 296.319 168.128 295.899 168.128C294.919 168.114 288.507 168.198 287.765 168.24C287.415 168.268 286.701 168.394 286.365 168.506C285.861 168.352 285.343 168.058 284.993 167.778C284.951 167.736 284.937 167.694 284.951 167.652L285.049 167.442C285.511 167.54 286.169 167.596 286.603 167.596C287.457 167.61 294.583 167.512 295.563 167.456ZM294.751 173.364L295.031 173.476C295.101 173.504 295.143 173.546 295.143 173.616C295.143 173.784 295.087 173.938 295.017 174.008C293.841 174.008 290.593 174.036 289.291 174.036C289.235 174.232 289.151 174.372 289.067 174.47H288.549C288.465 174.26 288.437 173.938 288.437 173.714L288.367 170.256C288.185 170.088 287.835 169.906 287.499 169.822L287.597 169.5C287.611 169.472 287.653 169.444 287.751 169.444C288.171 169.43 288.885 169.514 289.235 169.612C289.333 169.64 289.389 169.71 289.389 169.836L289.361 170.396V171.11L293.897 171.068V169.864C293.701 169.682 293.351 169.5 292.973 169.374L293.085 169.038C293.113 168.982 293.141 168.968 293.239 168.968C293.701 168.996 294.443 169.122 294.793 169.262C294.905 169.318 294.933 169.374 294.933 169.486L294.891 170.032L294.877 172.174C294.877 172.552 294.835 173.056 294.751 173.364ZM293.897 171.698L289.347 171.726L289.333 173.406L293.897 173.378V171.698ZM286.421 166.644L286.281 166.462C286.239 166.42 286.253 166.364 286.323 166.336C288.535 165.314 290.313 163.816 291.153 162.36C291.027 162.164 290.733 161.94 290.411 161.786L290.593 161.492C290.621 161.436 290.677 161.422 290.775 161.436C291.279 161.506 291.979 161.73 292.287 161.898C292.399 161.954 292.455 162.052 292.455 162.178C292.455 162.318 292.413 162.43 292.371 162.5C292.175 162.822 291.965 163.116 291.713 163.41L294.359 164.6L295.311 164.74C295.661 164.936 296.137 165.244 296.347 165.426C296.501 165.566 296.571 165.678 296.571 165.762C296.571 165.944 296.389 166.126 296.235 166.126C296.137 166.14 295.969 166.084 295.843 166.028L291.265 163.9C290.103 165.062 288.465 166.014 286.561 166.658C286.491 166.686 286.449 166.686 286.421 166.644ZM307.208 161.464L307.32 161.128C307.334 161.086 307.362 161.058 307.474 161.058C307.992 161.072 308.874 161.254 309.266 161.422C309.392 161.464 309.448 161.562 309.434 161.702L309.406 162.444V171.586C309.406 172.398 309.28 173.714 309.07 174.512H308.482C308.44 173.924 308.412 172.552 308.412 171.936V169.15C306.396 169.822 303.694 170.326 301.846 170.48C301.678 170.494 301.524 170.494 301.384 170.494C300.922 170.494 300.614 170.228 300.46 169.794C300.418 169.668 300.404 169.444 300.404 169.164V164.488C300.152 164.32 299.746 164.152 299.354 164.054L299.424 163.718C299.438 163.662 299.466 163.634 299.564 163.634C300.054 163.634 300.88 163.676 301.23 163.76C301.37 163.788 301.44 163.872 301.44 164.026L301.412 164.698V169.36C301.412 169.542 301.482 169.612 301.664 169.612C303.456 169.57 306.466 169.15 308.412 168.59V162.178C308.16 161.884 307.712 161.632 307.208 161.464ZM323.194 166.924L323.642 166.672C324.048 166.658 324.622 166.686 324.874 166.742C324.986 166.77 325.07 166.868 325.07 166.966C325.084 167.218 325 167.4 324.902 167.47C324.846 167.512 324.734 167.54 324.636 167.54L322.2 167.582V171.586C322.2 172.398 322.074 173.714 321.878 174.512H321.29C321.248 173.924 321.206 172.552 321.206 171.936V169.388C319.232 170.032 316.614 170.522 314.822 170.662C314.64 170.676 314.486 170.676 314.36 170.676C313.884 170.676 313.576 170.41 313.436 169.976C313.394 169.85 313.366 169.626 313.366 169.346V164.404C313.156 164.208 312.806 164.054 312.442 163.984L312.512 163.662C312.526 163.62 312.568 163.592 312.652 163.592C313.044 163.592 313.926 163.648 314.36 163.718C314.976 163.718 316.894 163.648 317.384 163.606L317.762 163.382C318.098 163.382 318.658 163.41 318.924 163.48C319.05 163.494 319.106 163.564 319.106 163.662C319.106 163.886 319.036 164.068 318.98 164.138C318.938 164.18 318.868 164.208 318.798 164.208L314.402 164.348V169.542C314.402 169.724 314.458 169.794 314.64 169.78C316.39 169.752 319.316 169.374 321.206 168.828V162.178C320.968 161.884 320.52 161.632 320.016 161.464L320.128 161.128C320.142 161.086 320.17 161.058 320.282 161.058C320.786 161.072 321.668 161.254 322.074 161.422C322.2 161.464 322.242 161.562 322.242 161.702L322.2 162.444V166.966L323.194 166.924ZM327.433 173.182C326.901 173.182 326.509 172.762 326.509 172.258C326.509 171.74 326.901 171.306 327.433 171.306C327.965 171.306 328.357 171.74 328.357 172.258C328.357 172.762 327.965 173.182 327.433 173.182Z" fill="white"/>
</svg>
