<svg width="433" height="272" viewBox="0 0 433 272" fill="none" xmlns="http://www.w3.org/2000/svg">
<rect width="433" height="272" fill="#191919" fill-opacity="0.7"/>
<path d="M226.188 121.65V117.75C226.188 112.29 221.925 108 216.5 108C211.075 108 206.812 112.29 206.812 117.75V121.65C203.519 121.65 201 124.185 201 127.5V141.15C201 144.465 203.519 147 206.812 147H226.188C229.481 147 232 144.465 232 141.15V127.5C232 124.185 229.481 121.65 226.188 121.65ZM210.688 117.75C210.688 114.435 213.206 111.9 216.5 111.9C219.794 111.9 222.312 114.435 222.312 117.75V121.65H210.688V117.75Z" fill="white"/>
<path d="M113.647 168.674L114.277 168.912C114.501 169.22 114.767 169.696 114.893 169.962C114.977 170.144 115.005 170.27 114.963 170.354C114.893 170.522 114.641 170.62 114.473 170.564C114.389 170.55 114.249 170.424 114.165 170.326L111.561 167.652C110.413 168.968 108.943 170.2 107.347 171.138C107.291 171.18 107.249 171.18 107.221 171.152L107.039 170.998C106.997 170.956 106.997 170.928 107.053 170.872C109.629 168.926 111.589 166.434 112.457 164.194C111.673 164.18 109.979 164.208 109.601 164.236C109.335 164.25 108.803 164.348 108.537 164.446C108.173 164.306 107.767 164.082 107.487 163.844C107.445 163.816 107.431 163.76 107.445 163.732L107.529 163.564C107.893 163.62 108.383 163.648 108.719 163.648C109.251 163.648 111.981 163.62 112.639 163.578L113.087 163.354C113.171 163.34 113.269 163.34 113.325 163.354C113.507 163.424 113.843 163.592 113.983 163.662C114.039 163.704 114.039 163.774 113.997 163.83L113.717 164.222C113.353 165.174 112.765 166.168 111.995 167.134L113.647 168.674ZM115.201 161.464L115.313 161.128C115.327 161.086 115.355 161.058 115.467 161.058C115.985 161.072 116.853 161.254 117.259 161.422C117.385 161.464 117.427 161.562 117.427 161.702L117.399 162.444V171.586C117.399 172.398 117.259 173.714 117.063 174.512H116.475C116.433 173.924 116.405 172.552 116.405 171.936V162.178C116.153 161.884 115.705 161.632 115.201 161.464ZM128.848 161.464L128.946 161.128C128.96 161.086 129.002 161.058 129.114 161.058C129.618 161.072 130.486 161.254 130.892 161.422C131.004 161.464 131.06 161.562 131.06 161.702L131.018 162.43V167.162C131.018 167.862 130.892 168.982 130.696 169.598H130.108C130.052 169.108 130.024 168.016 130.024 167.47V165.594C129.59 165.608 129.044 165.636 128.806 165.664C128.554 165.692 128.176 165.776 127.924 165.902C127.546 165.734 127.196 165.496 126.93 165.272C126.874 165.23 126.86 165.188 126.888 165.132L126.958 164.992C127.308 165.034 127.728 165.062 128.078 165.062C128.498 165.062 129.408 165.048 130.024 165.006V162.178C129.786 161.884 129.338 161.632 128.848 161.464ZM127.952 169.444C129.702 169.444 130.976 170.466 130.976 171.866C130.976 173.336 129.702 174.4 127.952 174.4C126.188 174.4 124.914 173.336 124.914 171.866C124.914 170.466 126.188 169.444 127.952 169.444ZM127.952 173.63C129.1 173.63 129.94 172.93 129.94 171.866C129.94 170.802 129.1 170.102 127.952 170.102C126.79 170.102 125.95 170.802 125.95 171.866C125.95 172.93 126.79 173.63 127.952 173.63ZM127.364 168.38L125.138 166.14C123.962 167.372 122.478 168.52 120.854 169.36C120.784 169.388 120.756 169.388 120.714 169.374L120.574 169.22C120.532 169.178 120.518 169.15 120.574 169.094C123.01 167.456 124.914 165.3 125.852 163.34C125.096 163.34 123.416 163.382 123.052 163.41C122.786 163.424 122.296 163.522 122.044 163.62C121.68 163.48 121.288 163.228 121.008 163.004C120.952 162.962 120.938 162.92 120.966 162.878L121.036 162.71C121.4 162.78 121.89 162.808 122.24 162.808C122.744 162.808 125.348 162.78 126.006 162.738L126.454 162.514C126.524 162.5 126.622 162.5 126.692 162.514C126.874 162.584 127.196 162.738 127.336 162.808C127.392 162.864 127.392 162.92 127.35 162.99L127.07 163.382C126.72 164.124 126.216 164.894 125.586 165.636L126.958 166.924L127.546 167.134C127.728 167.4 127.966 167.806 128.05 168.03C128.12 168.198 128.134 168.31 128.106 168.38C128.05 168.534 127.812 168.646 127.658 168.59C127.574 168.576 127.448 168.478 127.364 168.38ZM143.546 168.758V168.632C141.768 169.024 138.156 169.5 136.238 169.626C135.986 169.654 135.398 169.78 135.16 169.864C134.684 169.668 134.166 169.374 133.788 169.066C133.732 169.024 133.718 168.982 133.746 168.912L133.83 168.744C134.292 168.828 134.88 168.87 135.342 168.87C136.07 168.856 137.022 168.8 138.044 168.73V166.826L136.742 166.868C135.86 166.882 135.538 166.532 135.538 165.79V163.438C135.342 163.256 135.048 163.116 134.726 163.018L134.796 162.71C134.81 162.668 134.852 162.64 134.95 162.64C135.328 162.64 136.21 162.682 136.574 162.766C137.344 162.766 139.388 162.724 139.92 162.696L140.312 162.514C140.662 162.5 141.222 162.528 141.516 162.584C141.628 162.598 141.67 162.668 141.67 162.766C141.67 162.962 141.614 163.13 141.544 163.2C141.488 163.256 141.418 163.27 141.348 163.27L136.546 163.34V165.944C136.546 166.196 136.63 166.28 136.868 166.28C137.554 166.28 139.556 166.224 140.13 166.182L140.508 166C140.858 165.986 141.418 166.014 141.656 166.07C141.768 166.084 141.824 166.154 141.824 166.252C141.824 166.462 141.754 166.616 141.684 166.672C141.656 166.7 141.586 166.728 141.53 166.728L138.996 166.798V168.646C140.676 168.506 142.412 168.31 143.546 168.1V162.178C143.294 161.884 142.86 161.632 142.356 161.464L142.468 161.128C142.482 161.086 142.51 161.058 142.622 161.058C143.126 161.072 144.008 161.254 144.4 161.422C144.526 161.464 144.568 161.562 144.568 161.702L144.54 162.43V168.408C144.54 169.388 144.414 170.48 144.204 171.18H143.616C143.56 170.62 143.546 169.402 143.546 168.758ZM143.434 173.462L143.882 173.21C144.288 173.196 144.904 173.252 145.17 173.308C145.282 173.336 145.352 173.406 145.352 173.504C145.352 173.756 145.268 173.938 145.198 173.994C145.156 174.036 145.086 174.05 145.016 174.05L138.884 174.106C137.96 174.106 137.652 173.784 137.652 173.028V171.432C137.428 171.264 137.036 171.11 136.658 171.026L136.728 170.718C136.742 170.662 136.798 170.634 136.882 170.634C137.33 170.634 138.142 170.69 138.478 170.76C138.618 170.802 138.688 170.872 138.688 171.026L138.674 171.656V173.14C138.674 173.392 138.772 173.504 139.01 173.504C139.948 173.518 142.594 173.49 143.434 173.462ZM157.289 168.142L157.975 168.492C158.213 168.828 158.521 169.332 158.647 169.626C158.731 169.822 158.745 169.962 158.703 170.06C158.619 170.228 158.353 170.326 158.199 170.256C158.115 170.228 157.975 170.088 157.877 169.976L155.119 166.854C154.251 168.226 153.033 169.542 151.507 170.662C151.451 170.69 151.409 170.69 151.353 170.662L151.185 170.522C151.157 170.48 151.157 170.452 151.213 170.382C153.215 168.464 154.685 166.042 155.147 164.012C155.021 163.746 154.657 163.424 154.293 163.228L154.461 162.934C154.489 162.892 154.531 162.864 154.615 162.878C155.105 162.976 155.903 163.256 156.183 163.452C156.295 163.508 156.351 163.606 156.351 163.718C156.351 163.816 156.337 163.942 156.323 164.026C156.155 164.754 155.875 165.51 155.469 166.252L157.289 168.142ZM159.375 161.464L159.487 161.128C159.501 161.086 159.529 161.058 159.641 161.058C160.145 161.072 161.027 161.254 161.433 161.422C161.559 161.464 161.601 161.562 161.601 161.702L161.559 162.444V171.586C161.559 172.398 161.433 173.714 161.223 174.512H160.649C160.607 173.924 160.565 172.552 160.565 171.936V162.178C160.327 161.884 159.879 161.632 159.375 161.464ZM175.346 166.07L175.794 165.818C176.2 165.804 176.774 165.832 177.026 165.888C177.138 165.916 177.222 166.014 177.222 166.112C177.236 166.364 177.152 166.546 177.054 166.616C176.998 166.658 176.886 166.686 176.788 166.686L174.352 166.728V168.226C174.352 169.206 174.226 170.298 174.03 170.998H173.442C173.386 170.438 173.358 169.22 173.358 168.576V162.178C173.12 161.884 172.672 161.632 172.182 161.464L172.294 161.128C172.308 161.086 172.336 161.058 172.448 161.058C172.952 161.072 173.82 161.254 174.226 161.422C174.352 161.464 174.394 161.562 174.394 161.702L174.352 162.43V166.112L175.346 166.07ZM173.526 173.308L173.974 173.056C174.394 173.056 175.024 173.098 175.304 173.168C175.402 173.182 175.472 173.252 175.472 173.35C175.472 173.616 175.388 173.784 175.318 173.854C175.276 173.91 175.22 173.924 175.15 173.924L169.158 173.952C168.248 173.952 167.94 173.63 167.94 172.86V170.746C167.716 170.564 167.324 170.424 166.946 170.34L167.016 170.032C167.03 169.962 167.086 169.948 167.17 169.948C167.618 169.948 168.43 169.99 168.78 170.074C168.906 170.102 168.976 170.186 168.976 170.34L168.962 170.956V172.986C168.962 173.238 169.06 173.35 169.312 173.35C170.194 173.364 172.714 173.35 173.526 173.308ZM171.272 163.172L171.034 163.592C170.194 165.958 167.646 168.534 164.622 170.074C164.566 170.102 164.51 170.102 164.482 170.088L164.342 169.92C164.3 169.878 164.286 169.85 164.342 169.794C166.974 168.002 168.976 165.664 169.858 163.522C169.102 163.522 167.296 163.564 166.918 163.592C166.666 163.606 166.162 163.704 165.91 163.802C165.546 163.676 165.14 163.438 164.874 163.214C164.818 163.172 164.804 163.13 164.832 163.088L164.916 162.92C165.28 162.976 165.756 163.004 166.092 163.004C166.61 163.004 169.298 162.962 169.97 162.92L170.418 162.682C170.488 162.654 170.586 162.654 170.642 162.682C170.81 162.752 171.132 162.934 171.258 163.018C171.3 163.046 171.314 163.116 171.272 163.172ZM181.154 168.856C182.274 168.856 183.128 168.072 183.128 166.756C183.128 165.412 182.274 164.628 181.154 164.628C180.034 164.628 179.166 165.412 179.166 166.756C179.166 168.072 180.034 168.856 181.154 168.856ZM184.78 162.444L184.878 162.122C184.906 162.08 184.948 162.052 185.046 162.052C185.494 162.066 186.25 162.22 186.6 162.374C186.698 162.43 186.74 162.514 186.74 162.64L186.712 163.256V170.788C186.712 171.558 186.586 172.776 186.39 173.504H185.844C185.788 172.944 185.774 171.712 185.774 171.124V166.826C185.55 166.84 185.34 166.84 185.214 166.854C184.99 166.868 184.668 166.938 184.458 167.008C184.332 166.952 184.206 166.882 184.094 166.812C184.066 168.506 182.82 169.64 181.154 169.64C179.446 169.64 178.172 168.478 178.172 166.756C178.172 165.034 179.446 163.858 181.154 163.858C182.666 163.858 183.842 164.824 184.066 166.28C184.234 166.294 184.43 166.308 184.612 166.308C184.892 166.308 185.354 166.294 185.774 166.28V163.06C185.564 162.808 185.186 162.584 184.78 162.444ZM187.118 161.464L187.216 161.142C187.244 161.086 187.286 161.058 187.384 161.058C187.86 161.072 188.7 161.24 189.05 161.408C189.19 161.45 189.232 161.548 189.218 161.674L189.19 162.36V171.726C189.19 172.496 189.064 173.756 188.854 174.512H188.294C188.238 173.966 188.21 172.664 188.21 172.062V162.136C187.986 161.856 187.566 161.618 187.118 161.464ZM204.865 173.448L205.271 173.238C205.649 173.224 206.223 173.266 206.489 173.322C206.587 173.35 206.671 173.42 206.671 173.518C206.671 173.756 206.573 173.938 206.517 173.994C206.461 174.05 206.405 174.064 206.335 174.064L200.035 174.092C199.265 174.092 199.013 173.84 199.013 173.21V171.866C198.831 171.698 198.537 171.572 198.229 171.516L198.271 171.25C198.285 171.208 198.341 171.18 198.425 171.18C198.803 171.18 199.713 171.208 200.077 171.25C200.959 171.25 203.773 171.208 204.333 171.18L204.571 171.11C204.599 170.746 204.613 169.934 204.599 169.612C203.731 169.598 201.057 169.64 200.497 169.668C200.231 169.682 199.713 169.766 199.377 169.878C198.943 169.724 198.551 169.5 198.243 169.276C198.187 169.234 198.187 169.192 198.201 169.136L198.285 168.996C198.663 169.066 199.195 169.108 199.545 169.108C200.287 169.108 203.773 169.066 204.655 169.024L205.061 168.828C205.131 168.8 205.215 168.8 205.299 168.828C205.425 168.898 205.705 169.038 205.831 169.108C205.887 169.15 205.887 169.22 205.859 169.304L205.691 169.626C205.663 170.046 205.523 170.788 205.411 171.138L205.663 171.264C205.719 171.292 205.747 171.334 205.747 171.376C205.747 171.53 205.691 171.67 205.621 171.74L200.049 171.796V173.238C200.049 173.406 200.119 173.49 200.287 173.49C201.337 173.504 204.025 173.49 204.865 173.448ZM205.523 168.422H204.935C204.865 168.016 204.851 167.19 204.851 166.644C204.333 166.63 203.619 166.658 203.297 166.7C203.045 166.728 202.681 166.798 202.429 166.896C202.107 166.77 201.813 166.602 201.575 166.434C201.071 167.288 200.077 167.848 198.873 167.848C197.095 167.848 195.793 166.686 195.793 165.104C195.793 163.536 197.095 162.374 198.873 162.374C200.623 162.374 201.925 163.536 201.925 165.104C201.925 165.454 201.855 165.79 201.743 166.084C202.009 166.112 202.317 166.126 202.583 166.126C203.045 166.126 204.151 166.098 204.851 166.056V163.914C204.431 163.914 203.927 163.914 203.703 163.942C203.437 163.97 203.087 164.054 202.821 164.138C202.443 163.984 202.107 163.788 201.841 163.578C201.799 163.536 201.785 163.494 201.799 163.452L201.883 163.298C202.219 163.34 202.625 163.368 202.975 163.368C203.381 163.368 204.221 163.354 204.851 163.312V162.178C204.613 161.884 204.165 161.632 203.675 161.464L203.773 161.128C203.787 161.086 203.829 161.058 203.941 161.058C204.445 161.072 205.313 161.254 205.719 161.422C205.831 161.464 205.887 161.562 205.887 161.702L205.845 162.43V166.21C205.845 167.036 205.719 167.932 205.523 168.422ZM196.829 165.104C196.829 166.308 197.711 167.092 198.873 167.092C200.035 167.092 200.917 166.308 200.917 165.104C200.917 163.914 200.035 163.116 198.873 163.116C197.711 163.116 196.829 163.914 196.829 165.104ZM219.52 165.286L219.968 165.02C220.374 165.006 220.948 165.034 221.2 165.09C221.312 165.132 221.396 165.216 221.396 165.328C221.41 165.58 221.326 165.762 221.228 165.832C221.172 165.874 221.06 165.902 220.962 165.902L218.526 165.944V167.05C218.526 167.904 218.414 168.842 218.204 169.36H217.616C217.574 168.982 217.546 168.268 217.532 167.722C215.488 168.366 212.758 168.828 210.882 168.968C210.728 168.982 210.56 168.982 210.42 168.982C209.986 168.982 209.678 168.716 209.552 168.31C209.51 168.184 209.482 167.96 209.482 167.68V165.888C209.272 165.734 208.978 165.608 208.656 165.538L208.712 165.258C208.726 165.202 208.768 165.174 208.852 165.174C209.244 165.174 210.154 165.188 210.532 165.23C211.246 165.216 213.136 165.174 213.57 165.132L213.808 165.076C213.836 164.656 213.836 163.494 213.808 163.102C213.192 163.102 211.344 163.158 210.966 163.172C210.7 163.2 210.238 163.284 209.93 163.382C209.552 163.228 209.174 163.018 208.894 162.78C208.838 162.738 208.838 162.696 208.852 162.654L208.95 162.472C209.3 162.542 209.79 162.57 210.126 162.57C210.658 162.57 213.192 162.528 213.864 162.486L214.256 162.276C214.326 162.248 214.424 162.248 214.494 162.276C214.634 162.346 214.928 162.528 215.04 162.612C215.096 162.668 215.096 162.71 215.068 162.794L214.914 163.172C214.9 163.69 214.774 164.642 214.662 165.09L214.872 165.23C214.942 165.272 214.97 165.314 214.97 165.356C214.97 165.51 214.9 165.65 214.844 165.706L210.504 165.832V167.918C210.504 168.072 210.574 168.156 210.756 168.156C212.562 168.114 215.586 167.736 217.532 167.19V162.178C217.294 161.884 216.846 161.632 216.356 161.464L216.468 161.128C216.482 161.086 216.51 161.058 216.622 161.058C217.126 161.072 217.994 161.254 218.4 161.422C218.526 161.464 218.568 161.562 218.568 161.702L218.526 162.43V165.328L219.52 165.286ZM217.35 169.948L217.798 169.738C217.868 169.71 217.966 169.71 218.022 169.738C218.19 169.808 218.498 169.948 218.61 170.032C218.652 170.06 218.652 170.116 218.638 170.186L218.498 170.676C218.442 171.474 218.33 172.398 218.162 173.238L218.428 173.35C218.484 173.378 218.526 173.434 218.526 173.504C218.526 173.7 218.442 173.882 218.344 173.952L213.22 174.036C213.178 174.19 213.122 174.302 213.052 174.414H212.492C212.422 174.232 212.366 173.98 212.352 173.742L212.114 170.662C211.96 170.508 211.68 170.34 211.4 170.242L211.47 169.962C211.484 169.92 211.526 169.906 211.596 169.906C212.016 169.906 212.758 169.976 213.164 170.046C214.172 170.032 216.342 170.004 217.35 169.948ZM217.364 173.238L217.42 170.606C216.076 170.592 214.494 170.648 213.178 170.69L213.248 173.392C214.34 173.392 216.202 173.364 217.084 173.308L217.364 173.238ZM223.788 162.5L223.872 162.374C225.16 162.584 226.504 162.626 227.498 162.626C227.624 162.626 227.694 162.654 227.722 162.752C227.778 162.892 227.75 163.186 227.666 163.298C227.61 163.368 227.554 163.382 227.47 163.382C226.714 163.382 225.594 163.424 224.95 163.466C224.824 163.48 224.768 163.466 224.67 163.41C224.39 163.256 224.026 162.934 223.788 162.626C223.76 162.57 223.76 162.528 223.788 162.5ZM226.028 170.452C227.036 170.452 227.89 169.794 227.89 168.688C227.89 167.582 227.036 166.924 226.028 166.924C225.02 166.924 224.166 167.582 224.166 168.688C224.166 169.794 225.02 170.452 226.028 170.452ZM226.028 166.238C227.582 166.238 228.898 167.218 228.898 168.688C228.898 170.158 227.582 171.138 226.028 171.138C224.474 171.138 223.158 170.158 223.158 168.688C223.158 167.218 224.474 166.238 226.028 166.238ZM228.296 164.6L228.73 164.404C229.108 164.404 229.696 164.488 229.962 164.572C230.046 164.6 230.102 164.67 230.102 164.74C230.102 165.006 229.948 165.216 229.836 165.286C229.57 165.244 228.898 165.23 228.59 165.23C228.03 165.23 224.488 165.286 223.956 165.328C223.704 165.342 223.186 165.44 222.934 165.538C222.556 165.398 222.108 165.132 221.814 164.88C221.758 164.838 221.758 164.796 221.786 164.754L221.87 164.586C222.276 164.656 222.822 164.698 223.144 164.698C223.732 164.712 227.666 164.642 228.296 164.6ZM233.042 167.386L233.49 167.12C233.896 167.106 234.47 167.134 234.722 167.19C234.834 167.218 234.918 167.316 234.918 167.428C234.932 167.666 234.848 167.862 234.75 167.918C234.694 167.974 234.582 167.988 234.484 167.988L232.048 168.03V171.586C232.048 172.398 231.922 173.714 231.726 174.512H231.138C231.096 173.924 231.054 172.552 231.054 171.936V162.178C230.816 161.884 230.368 161.632 229.864 161.464L229.976 161.128C229.99 161.086 230.018 161.058 230.13 161.058C230.634 161.072 231.516 161.254 231.922 161.422C232.048 161.464 232.09 161.562 232.09 161.702L232.048 162.444V167.428L233.042 167.386ZM245.303 173.434L245.709 173.224C246.087 173.224 246.661 173.252 246.927 173.322C247.025 173.336 247.109 173.406 247.109 173.504C247.109 173.756 247.011 173.924 246.955 173.98C246.899 174.036 246.843 174.05 246.773 174.05L240.459 174.078C239.703 174.078 239.465 173.826 239.465 173.21V171.88C239.283 171.712 238.989 171.586 238.681 171.53L238.723 171.264C238.737 171.222 238.779 171.194 238.863 171.194C239.255 171.194 240.165 171.222 240.515 171.264C241.369 171.264 244.239 171.222 244.799 171.194L245.023 171.124C245.051 170.774 245.065 169.948 245.051 169.612C244.197 169.598 241.523 169.64 240.963 169.668C240.697 169.682 240.179 169.766 239.843 169.878C239.409 169.724 239.017 169.5 238.709 169.276C238.653 169.234 238.653 169.192 238.667 169.136L238.751 168.996C239.129 169.066 239.675 169.108 240.011 169.108C240.753 169.108 244.239 169.066 245.107 169.024L245.527 168.828C245.583 168.8 245.681 168.8 245.751 168.828C245.891 168.898 246.171 169.038 246.297 169.108C246.353 169.15 246.353 169.22 246.325 169.304L246.157 169.626C246.129 170.06 245.989 170.788 245.877 171.152L246.129 171.278C246.185 171.306 246.199 171.348 246.199 171.39C246.199 171.544 246.143 171.684 246.087 171.74L240.487 171.81V173.224C240.487 173.406 240.571 173.476 240.739 173.476C241.817 173.49 244.463 173.476 245.303 173.434ZM242.769 167.834L239.997 165.314C239.101 166.574 237.799 167.764 236.217 168.702C236.147 168.758 236.091 168.758 236.063 168.716L235.909 168.576C235.867 168.534 235.881 168.492 235.937 168.436C237.897 166.896 239.395 164.894 239.955 163.144C239.829 162.878 239.493 162.57 239.143 162.374L239.311 162.08C239.339 162.038 239.381 162.024 239.465 162.038C239.955 162.122 240.697 162.416 240.977 162.598C241.089 162.654 241.145 162.752 241.145 162.864C241.145 162.976 241.145 163.088 241.117 163.158C240.949 163.69 240.697 164.236 240.361 164.754L242.181 166.28L242.769 166.476C243.007 166.756 243.315 167.19 243.455 167.414C243.539 167.596 243.567 167.722 243.539 167.806C243.483 167.974 243.245 168.086 243.091 168.044C243.007 168.03 242.867 167.918 242.769 167.834ZM245.289 166.448V162.178C245.037 161.884 244.589 161.632 244.099 161.464L244.211 161.128C244.225 161.086 244.253 161.058 244.365 161.058C244.869 161.072 245.751 161.254 246.143 161.422C246.269 161.464 246.311 161.562 246.311 161.702L246.283 162.43V166.126C246.283 166.952 246.157 167.848 245.961 168.352H245.359C245.303 167.89 245.289 166.952 245.289 166.448ZM253.852 167.148L253.698 166.98C253.67 166.938 253.684 166.882 253.74 166.854C256.05 165.706 257.87 164.082 258.71 162.528C258.57 162.332 258.276 162.08 257.968 161.926L258.136 161.646C258.178 161.59 258.234 161.576 258.332 161.59C258.836 161.66 259.55 161.856 259.844 162.024C259.984 162.094 260.026 162.192 260.026 162.318C260.026 162.458 259.984 162.57 259.942 162.64C259.746 163.004 259.494 163.368 259.214 163.704L261.958 165.048L262.91 165.202C263.246 165.412 263.694 165.748 263.904 165.93C264.058 166.07 264.114 166.196 264.114 166.28C264.114 166.462 263.918 166.63 263.764 166.644C263.666 166.644 263.498 166.588 263.372 166.518L258.78 164.194C257.604 165.412 255.938 166.448 253.992 167.148C253.936 167.176 253.894 167.176 253.852 167.148ZM263.106 168.38L263.61 168.156C264.114 168.17 264.856 168.254 265.178 168.366C265.276 168.394 265.36 168.478 265.36 168.604C265.36 168.842 265.192 169.052 265.066 169.122C264.688 169.08 263.862 169.052 263.442 169.052C262.966 169.052 261.202 169.052 259.438 169.08V171.544C259.438 172.286 259.298 173.658 259.102 174.414H258.514C258.472 173.784 258.444 172.51 258.444 171.866V169.094C256.946 169.108 255.616 169.136 255.308 169.164C254.958 169.192 254.244 169.318 253.908 169.43C253.404 169.262 252.886 168.982 252.536 168.688C252.494 168.66 252.48 168.618 252.494 168.562L252.592 168.366C253.054 168.45 253.712 168.506 254.146 168.52C255 168.534 262.126 168.436 263.106 168.38ZM279.551 167.022V162.178C279.299 161.884 278.851 161.632 278.361 161.464L278.473 161.128C278.487 161.086 278.515 161.058 278.627 161.058C279.131 161.072 280.013 161.254 280.405 161.422C280.531 161.464 280.573 161.562 280.573 161.702L280.545 162.43V166.7C280.545 167.54 280.419 168.464 280.209 169.01H279.621C279.565 168.548 279.551 167.54 279.551 167.022ZM273.713 163.116C272.537 163.116 271.641 163.9 271.641 165.16C271.641 166.42 272.537 167.19 273.713 167.19C274.903 167.19 275.785 166.42 275.785 165.16C275.785 163.9 274.903 163.116 273.713 163.116ZM273.713 167.96C271.921 167.96 270.605 166.798 270.605 165.16C270.605 163.522 271.921 162.374 273.713 162.374C275.491 162.374 276.793 163.522 276.793 165.16C276.793 166.798 275.491 167.96 273.713 167.96ZM275.757 173L274.483 171.558C273.741 172.594 272.635 173.56 271.277 174.33C271.207 174.386 271.165 174.386 271.123 174.344L270.969 174.218C270.913 174.162 270.927 174.134 270.997 174.078C272.509 172.916 273.699 171.446 274.175 170.13C274.035 169.934 273.727 169.682 273.405 169.528L273.573 169.22C273.601 169.178 273.643 169.164 273.741 169.178C274.217 169.248 274.875 169.458 275.155 169.626C275.267 169.682 275.309 169.766 275.309 169.892C275.309 170.004 275.281 170.102 275.253 170.172C275.141 170.452 275.001 170.732 274.833 171.012L275.673 171.824L276.079 172.02C276.205 172.23 276.331 172.538 276.401 172.734C276.429 172.846 276.443 172.93 276.401 173C276.345 173.14 276.163 173.224 276.023 173.196C275.939 173.182 275.841 173.098 275.757 173ZM280.489 172.398L281.063 172.678C281.245 172.972 281.455 173.392 281.539 173.63C281.609 173.798 281.609 173.896 281.581 173.98C281.497 174.12 281.287 174.218 281.133 174.162C281.063 174.148 280.937 174.036 280.853 173.938L278.893 171.684C278.137 172.762 277.059 173.756 275.715 174.582C275.631 174.624 275.603 174.624 275.561 174.582L275.407 174.456C275.351 174.414 275.365 174.372 275.421 174.316C277.003 173.028 278.193 171.404 278.683 169.976C278.557 169.738 278.235 169.444 277.899 169.248L278.067 168.954C278.095 168.884 278.137 168.87 278.221 168.884C278.711 168.996 279.411 169.276 279.677 169.458C279.789 169.542 279.831 169.626 279.831 169.738C279.831 169.85 279.803 169.948 279.775 170.018C279.635 170.396 279.467 170.774 279.243 171.138L280.489 172.398ZM293.758 167.456L294.262 167.232C294.766 167.26 295.508 167.344 295.83 167.442C295.928 167.484 296.012 167.568 296.012 167.68C296.012 167.918 295.844 168.128 295.718 168.198C295.34 168.156 294.514 168.128 294.094 168.128C293.114 168.114 286.702 168.198 285.96 168.24C285.61 168.268 284.896 168.394 284.56 168.506C284.056 168.352 283.538 168.058 283.188 167.778C283.146 167.736 283.132 167.694 283.146 167.652L283.244 167.442C283.706 167.54 284.364 167.596 284.798 167.596C285.652 167.61 292.778 167.512 293.758 167.456ZM292.946 173.364L293.226 173.476C293.296 173.504 293.338 173.546 293.338 173.616C293.338 173.784 293.282 173.938 293.212 174.008C292.036 174.008 288.788 174.036 287.486 174.036C287.43 174.232 287.346 174.372 287.262 174.47H286.744C286.66 174.26 286.632 173.938 286.632 173.714L286.562 170.256C286.38 170.088 286.03 169.906 285.694 169.822L285.792 169.5C285.806 169.472 285.848 169.444 285.946 169.444C286.366 169.43 287.08 169.514 287.43 169.612C287.528 169.64 287.584 169.71 287.584 169.836L287.556 170.396V171.11L292.092 171.068V169.864C291.896 169.682 291.546 169.5 291.168 169.374L291.28 169.038C291.308 168.982 291.336 168.968 291.434 168.968C291.896 168.996 292.638 169.122 292.988 169.262C293.1 169.318 293.128 169.374 293.128 169.486L293.086 170.032L293.072 172.174C293.072 172.552 293.03 173.056 292.946 173.364ZM292.092 171.698L287.542 171.726L287.528 173.406L292.092 173.378V171.698ZM284.616 166.644L284.476 166.462C284.434 166.42 284.448 166.364 284.518 166.336C286.73 165.314 288.508 163.816 289.348 162.36C289.222 162.164 288.928 161.94 288.606 161.786L288.788 161.492C288.816 161.436 288.872 161.422 288.97 161.436C289.474 161.506 290.174 161.73 290.482 161.898C290.594 161.954 290.65 162.052 290.65 162.178C290.65 162.318 290.608 162.43 290.566 162.5C290.37 162.822 290.16 163.116 289.908 163.41L292.554 164.6L293.506 164.74C293.856 164.936 294.332 165.244 294.542 165.426C294.696 165.566 294.766 165.678 294.766 165.762C294.766 165.944 294.584 166.126 294.43 166.126C294.332 166.14 294.164 166.084 294.038 166.028L289.46 163.9C288.298 165.062 286.66 166.014 284.756 166.658C284.686 166.686 284.644 166.686 284.616 166.644ZM305.404 161.464L305.516 161.128C305.53 161.086 305.558 161.058 305.67 161.058C306.188 161.072 307.07 161.254 307.462 161.422C307.588 161.464 307.644 161.562 307.63 161.702L307.602 162.444V171.586C307.602 172.398 307.476 173.714 307.266 174.512H306.678C306.636 173.924 306.608 172.552 306.608 171.936V169.15C304.592 169.822 301.89 170.326 300.042 170.48C299.874 170.494 299.72 170.494 299.58 170.494C299.118 170.494 298.81 170.228 298.656 169.794C298.614 169.668 298.6 169.444 298.6 169.164V164.488C298.348 164.32 297.942 164.152 297.55 164.054L297.62 163.718C297.634 163.662 297.662 163.634 297.76 163.634C298.25 163.634 299.076 163.676 299.426 163.76C299.566 163.788 299.636 163.872 299.636 164.026L299.608 164.698V169.36C299.608 169.542 299.678 169.612 299.86 169.612C301.652 169.57 304.662 169.15 306.608 168.59V162.178C306.356 161.884 305.908 161.632 305.404 161.464ZM321.389 166.924L321.837 166.672C322.243 166.658 322.817 166.686 323.069 166.742C323.181 166.77 323.265 166.868 323.265 166.966C323.279 167.218 323.195 167.4 323.097 167.47C323.041 167.512 322.929 167.54 322.831 167.54L320.395 167.582V171.586C320.395 172.398 320.269 173.714 320.073 174.512H319.485C319.443 173.924 319.401 172.552 319.401 171.936V169.388C317.427 170.032 314.809 170.522 313.017 170.662C312.835 170.676 312.681 170.676 312.555 170.676C312.079 170.676 311.771 170.41 311.631 169.976C311.589 169.85 311.561 169.626 311.561 169.346V164.404C311.351 164.208 311.001 164.054 310.637 163.984L310.707 163.662C310.721 163.62 310.763 163.592 310.847 163.592C311.239 163.592 312.121 163.648 312.555 163.718C313.171 163.718 315.089 163.648 315.579 163.606L315.957 163.382C316.293 163.382 316.853 163.41 317.119 163.48C317.245 163.494 317.301 163.564 317.301 163.662C317.301 163.886 317.231 164.068 317.175 164.138C317.133 164.18 317.063 164.208 316.993 164.208L312.597 164.348V169.542C312.597 169.724 312.653 169.794 312.835 169.78C314.585 169.752 317.511 169.374 319.401 168.828V162.178C319.163 161.884 318.715 161.632 318.211 161.464L318.323 161.128C318.337 161.086 318.365 161.058 318.477 161.058C318.981 161.072 319.863 161.254 320.269 161.422C320.395 161.464 320.437 161.562 320.437 161.702L320.395 162.444V166.966L321.389 166.924ZM325.629 173.182C325.097 173.182 324.705 172.762 324.705 172.258C324.705 171.74 325.097 171.306 325.629 171.306C326.161 171.306 326.553 171.74 326.553 172.258C326.553 172.762 326.161 173.182 325.629 173.182Z" fill="white"/>
</svg>
