<svg width="57" height="52" viewBox="0 0 57 52" fill="none" xmlns="http://www.w3.org/2000/svg">
<path d="M0.43645 8.04364C0.195406 6.83818 0.977217 5.66556 2.18267 5.42451L27.1275 0.436507C28.333 0.195462 29.5056 0.977273 29.7466 2.18273L37.9769 43.3417C38.2179 44.5472 37.4361 45.7198 36.2306 45.9609L11.2858 50.9489C10.0803 51.1899 8.9077 50.4081 8.66666 49.2026L0.43645 8.04364Z" fill="#191919"/>
<path d="M2.74376 9.85223C2.50272 8.64677 3.28453 7.47415 4.48999 7.23311L25.6931 2.9933C26.8986 2.75226 28.0712 3.53407 28.3122 4.73952L35.6695 41.5332C35.9106 42.7386 35.1288 43.9113 33.9233 44.1523L12.7202 48.3921C11.5147 48.6332 10.3421 47.8513 10.1011 46.6459L2.74376 9.85223Z" fill="#FCFCA8"/>
<path fill-rule="evenodd" clip-rule="evenodd" d="M3.95989 8.63625C3.94267 8.55015 3.99851 8.46639 4.08462 8.44917L26.535 3.95997C26.6211 3.94275 26.7048 3.99859 26.7221 4.0847L34.4535 42.7492C34.4707 42.8353 34.4148 42.9191 34.3287 42.9363L11.8784 47.4255C11.7923 47.4427 11.7085 47.3869 11.6913 47.3008L3.95989 8.63625ZM4.30287 8.72981L11.9719 47.0825L34.1105 42.6557L26.4414 4.30295L4.30287 8.72981Z" fill="#191919"/>
<path d="M4.11578 8.60498L5.67484 8.29323L5.98659 9.85228L4.42753 10.164L4.11578 8.60498Z" fill="#191919"/>
<path d="M11.5354 45.7104L13.0945 45.3987L13.4062 46.9578L11.8472 47.2695L11.5354 45.7104Z" fill="#191919"/>
<path d="M32.4268 41.5331L33.9858 41.2213L34.2976 42.7804L32.7385 43.0921L32.4268 41.5331Z" fill="#191919"/>
<path d="M25.0071 4.42761L26.5661 4.11586L26.8779 5.67492L25.3188 5.98667L25.0071 4.42761Z" fill="#191919"/>
<path fill-rule="evenodd" clip-rule="evenodd" d="M17.0556 14.9352C9.90893 16.3643 5.27391 23.3163 6.70296 30.4629C8.13201 37.6096 15.084 42.2446 22.2306 40.8155C29.3773 39.3865 34.0123 32.4345 32.5832 25.2879C31.1542 18.1412 24.2022 13.5062 17.0556 14.9352ZM6.39115 30.5253C4.92766 23.2064 9.67437 16.0869 16.9932 14.6234C24.3121 13.16 31.4316 17.9067 32.895 25.2255C34.3585 32.5444 29.6118 39.6639 22.293 41.1273C14.9741 42.5908 7.85464 37.8441 6.39115 30.5253Z" fill="#191919"/>
<path fill-rule="evenodd" clip-rule="evenodd" d="M17.4296 16.8061C11.3163 18.0285 7.35135 23.9754 8.57379 30.0888C9.79624 36.2021 15.7431 40.167 21.8565 38.9446C27.9699 37.7222 31.9348 31.7753 30.7123 25.6619C29.4899 19.5485 23.543 15.5836 17.4296 16.8061ZM8.26198 30.1511C7.00511 23.8655 11.0817 17.7511 17.3673 16.4942C23.6529 15.2374 29.7673 19.314 31.0242 25.5996C32.281 31.8852 28.2044 37.9995 21.9188 39.2564C15.6332 40.5133 9.51886 36.4367 8.26198 30.1511Z" fill="#191919"/>
<path fill-rule="evenodd" clip-rule="evenodd" d="M6.29829 12.2221C6.16055 11.5333 6.6073 10.8632 7.29613 10.7255L24.7575 7.23385C25.4464 7.09611 26.1164 7.54286 26.2542 8.23169C26.3919 8.92052 25.9452 9.59059 25.2563 9.72833L7.79493 13.2199C7.1061 13.3577 6.43603 12.9109 6.29829 12.2221ZM7.35848 11.0373C6.84186 11.1406 6.5068 11.6431 6.6101 12.1597C6.71341 12.6764 7.21596 13.0114 7.73258 12.9081L25.194 9.41652C25.7106 9.31322 26.0457 8.81067 25.9424 8.29404C25.8391 7.77742 25.3365 7.44236 24.8199 7.54566L7.35848 11.0373Z" fill="#191919"/>
<path d="M23.3867 31.6463C23.7823 31.3721 23.9016 30.8265 23.7414 30.0251C23.5811 29.2236 23.2612 28.7659 22.7905 28.6649C22.2531 28.5493 21.6412 28.9479 21.1317 29.4151C21.3675 28.7675 21.4997 28.0487 21.1867 27.597C20.9142 27.2011 20.3686 27.0818 19.5671 27.242C18.7657 27.4023 18.3079 27.7222 18.207 28.1929C18.0917 28.7302 18.49 29.3422 18.9572 29.8517C18.3096 29.6141 17.5904 29.4816 17.1388 29.795C16.7432 30.0692 16.6238 30.6148 16.7841 31.4163C16.9444 32.2177 17.2643 32.6755 17.7349 32.7764C17.8711 32.8043 18.0115 32.8039 18.1475 32.7752C18.5711 32.6905 19.0115 32.3779 19.3925 32.0268C19.1563 32.6745 19.0238 33.3937 19.3375 33.8467C19.6113 34.2402 20.1569 34.3596 20.9583 34.1993C21.7598 34.039 22.2175 33.7191 22.3185 33.2485C22.3743 32.9954 22.313 32.7261 22.1862 32.4592C22.7408 32.9941 23.2815 33.6408 23.6209 34.3571C23.6408 34.3991 23.6742 34.4333 23.7158 34.4541C23.7574 34.475 23.8047 34.4814 23.8503 34.4722C23.8671 34.4689 23.8834 34.4635 23.8989 34.4561C23.9237 34.4444 23.9459 34.4279 23.9642 34.4076C23.9826 34.3872 23.9968 34.3635 24.006 34.3377C24.0152 34.3118 24.0192 34.2845 24.0178 34.2571C24.0165 34.2297 24.0097 34.2029 23.9979 34.1781C23.5339 33.1984 22.74 32.3569 22.0125 31.7306C22.3611 31.8209 22.7084 31.8621 23.0051 31.8028C23.1417 31.7773 23.2716 31.7241 23.3867 31.6463ZM18.615 28.2805C18.678 27.9873 19.0259 27.7759 19.649 27.6513C20.2721 27.5267 20.6745 27.5881 20.8454 27.8345C21.0398 28.1148 20.977 28.6895 20.6684 29.4521C20.5328 29.782 20.3769 30.1032 20.2014 30.4137C19.92 30.1949 19.6526 29.9587 19.4006 29.7067C18.8223 29.1204 18.5434 28.614 18.615 28.2805ZM17.8225 32.3684C17.5294 32.3054 17.3179 31.9575 17.1933 31.3344C17.0688 30.7113 17.1302 30.3089 17.3765 30.138C17.4461 30.092 17.5243 30.0608 17.6065 30.0463C17.9223 29.9831 18.402 30.0745 18.9955 30.3147C19.325 30.4503 19.6457 30.6064 19.9558 30.782C19.737 31.0634 19.5009 31.3309 19.2487 31.5828C18.6624 32.1611 18.1561 32.44 17.8225 32.3684ZM21.9105 33.1609C21.8474 33.454 21.4996 33.6655 20.8765 33.7901C20.2534 33.9146 19.851 33.8532 19.6801 33.6069C19.4857 33.3265 19.5484 32.7518 19.8571 31.9893C19.9925 31.6593 20.1485 31.3381 20.3241 31.0276C20.6055 31.2464 20.8729 31.4825 21.1248 31.7347C21.7032 32.3209 21.982 32.827 21.9105 33.1609ZM21.5313 31.1263C21.2013 30.9909 20.8802 30.8349 20.5697 30.6593C20.7885 30.3779 21.0246 30.1105 21.2767 29.8586C21.862 29.2804 22.3684 29.0018 22.7019 29.0731C22.9961 29.136 23.2075 29.4838 23.3321 30.1069C23.4567 30.73 23.3953 31.1324 23.1489 31.3033C22.8686 31.4977 22.2939 31.4349 21.5313 31.1263Z" fill="#191919"/>
<path d="M22.3233 23.7675C22.4419 24.3609 22.8082 24.8727 23.3501 24.7643C23.8852 24.6573 24.0265 24.0441 23.9079 23.4507C23.7899 22.8607 23.4236 22.349 22.8886 22.456C22.3466 22.5643 22.2053 23.1776 22.3233 23.7675ZM22.8577 22.3016C23.4408 22.185 24.0732 22.5472 24.2406 23.3841C24.4031 24.197 23.9634 24.7986 23.3803 24.9152C22.7904 25.0332 22.1545 24.6717 21.9871 23.8348C21.8253 23.0253 22.2712 22.4189 22.8577 22.3016Z" fill="#191919"/>
<path d="M21.4766 22.7633L21.1274 22.8724C21.1857 23.1996 21.2523 23.5323 21.3202 23.8718L21.3579 24.0605C21.4244 24.3932 21.4909 24.7259 21.5643 25.0572L21.9279 25.0202L21.9526 25.1437L20.9613 25.3419L20.9366 25.2184L21.2659 25.1169C21.2069 24.7863 21.137 24.4542 21.0752 24.1277L20.8722 23.0946L20.4434 25.4455L20.3028 25.4736L18.9714 23.489C19.0434 23.8135 19.1442 24.2641 19.1449 24.2676L19.3884 25.4852L19.7293 25.4598L19.754 25.5833L18.9274 25.7486L18.9027 25.6251L19.2272 25.5174L18.7958 23.3422L18.4411 23.3703L18.4171 23.2502L19.0551 23.1227L20.3549 25.0743L20.7735 22.7791L21.4526 22.6433L21.4766 22.7633Z" fill="#191919"/>
<path d="M18.1174 23.435L17.7682 23.5441C17.8231 23.872 17.8896 24.2047 17.9575 24.5442L17.9952 24.7329C18.0611 25.0622 18.1283 25.3983 18.2044 25.7255L18.5687 25.6919L18.5934 25.8154L17.5747 26.0191L17.55 25.8956L17.8992 25.7866C17.8443 25.4587 17.7778 25.126 17.7106 24.7898L17.6728 24.6012C17.6063 24.2685 17.5391 23.9323 17.463 23.6051L17.0987 23.6387L17.0747 23.5187L18.0934 23.315L18.1174 23.435Z" fill="#191919"/>
<path d="M16.7437 23.7097L16.3945 23.8188C16.4528 24.146 16.5193 24.4787 16.5872 24.8183L16.625 25.0069C16.6915 25.3396 16.758 25.6723 16.8314 26.0036L17.195 25.9666L17.2197 26.0901L16.2284 26.2883L16.2037 26.1648L16.533 26.0633C16.474 25.7327 16.4041 25.4006 16.3423 25.0741L16.1393 24.041L15.7105 26.3919L15.5699 26.42L14.2385 24.4354C14.3105 24.7599 14.4113 25.2106 14.412 25.214L14.6555 26.4316L14.9964 26.4062L15.0211 26.5297L14.1945 26.695L14.1698 26.5715L14.4943 26.4638L14.0629 24.2886L13.7082 24.3167L13.6842 24.1967L14.3222 24.0691L15.622 26.0207L16.0406 23.7255L16.7197 23.5897L16.7437 23.7097Z" fill="#191919"/>
<path d="M0.43645 8.04364C0.195406 6.83818 0.977216 5.66556 2.18267 5.42451L27.1275 0.436507C28.333 0.195462 29.5056 0.977273 29.7466 2.18273L37.9769 43.3417C38.2179 44.5472 37.4361 45.7198 36.2306 45.9609L11.2858 50.9489C10.0803 51.1899 8.9077 50.4081 8.66666 49.2026L0.43645 8.04364Z" fill="white" fill-opacity="0.5"/>
<path d="M26.6176 3.22198C26.6904 1.99481 27.7443 1.05902 28.9714 1.13182L54.3654 2.63835C55.5926 2.71115 56.5284 3.76499 56.4556 4.99215L53.9698 46.8923C53.897 48.1194 52.8432 49.0552 51.616 48.9824L26.222 47.4759C24.9948 47.4031 24.0591 46.3493 24.1319 45.1221L26.6176 3.22198Z" fill="#191919"/>
<path d="M28.4458 5.01975C28.5127 3.8912 29.4333 3.02771 30.5018 3.0911L52.614 4.40293C53.6826 4.46633 54.4946 5.4326 54.4276 6.56116L52.1416 45.0945C52.0746 46.2231 51.1541 47.0866 50.0855 47.0232L27.9733 45.7113C26.9048 45.6479 26.0928 44.6817 26.1597 43.5531L28.4458 5.01975Z" fill="white"/>
<path d="M31.9073 10.9704C31.895 11.176 32.0454 11.3092 32.2431 11.3209C32.4427 11.3328 32.6058 11.2183 32.618 11.0126C32.6303 10.805 32.482 10.672 32.2823 10.6601C32.0847 10.6484 31.9196 10.7628 31.9073 10.9704ZM32.8167 11.8499L32.8903 11.8242C32.9621 11.8305 33.0672 11.8487 33.1122 11.8674C33.1259 11.8723 33.1372 11.885 33.1362 11.9009C33.1342 11.9349 33.1084 11.9654 33.0899 11.9723C33.0364 11.9631 32.9188 11.9521 32.8589 11.9486C32.7193 11.9383 31.8042 11.8959 31.698 11.8956C31.6479 11.8967 31.5449 11.9106 31.496 11.9237C31.4255 11.8955 31.354 11.8512 31.3066 11.8063C31.3009 11.8019 31.2992 11.7958 31.3017 11.7879L31.3173 11.7608C31.3825 11.7767 31.4759 11.7903 31.5378 11.7939C31.5977 11.7975 31.8713 11.8118 32.151 11.8244L32.1752 11.4171C31.9191 11.3778 31.7415 11.197 31.7555 10.9614C31.7707 10.7058 31.9989 10.5411 32.2884 10.5583C32.5779 10.5755 32.7849 10.7661 32.7697 11.0217C32.7561 11.2512 32.5664 11.4083 32.3151 11.4234L32.2909 11.8307C32.5347 11.8412 32.7566 11.8503 32.8167 11.8499ZM34.7815 11.3495L34.8551 11.3239C34.9269 11.3301 35.032 11.3484 35.0769 11.3671C35.0907 11.3719 35.102 11.3846 35.101 11.4006C35.099 11.4345 35.0733 11.463 35.0548 11.47C35.0013 11.4608 34.8837 11.4498 34.8238 11.4462C34.6842 11.4359 33.7691 11.3936 33.6629 11.3933C33.6128 11.3943 33.5099 11.4062 33.461 11.4193C33.3904 11.3931 33.3189 11.3488 33.2714 11.3059C33.2656 11.3016 33.264 11.2954 33.2665 11.2876L33.2821 11.2605C33.3473 11.2764 33.4406 11.2899 33.5025 11.2936C33.6242 11.3028 34.6411 11.3512 34.7815 11.3495ZM34.5087 12.265L34.5704 12.2386C34.6243 12.2418 34.7058 12.2526 34.7432 12.2629C34.7591 12.2658 34.7665 12.2763 34.7657 12.2903C34.7636 12.3242 34.7501 12.3494 34.7417 12.3569C34.7353 12.3626 34.7251 12.366 34.7151 12.3654L33.7985 12.3149C33.6887 12.3084 33.6549 12.2703 33.6601 12.1825L33.6715 11.9908C33.6468 11.9673 33.606 11.9469 33.5625 11.9363L33.5708 11.8987C33.5731 11.8928 33.5795 11.8872 33.5934 11.888C33.6473 11.8912 33.7749 11.9028 33.8283 11.914C33.9761 11.9228 34.3837 11.941 34.4618 11.9416L34.4963 11.9337C34.5053 11.8841 34.514 11.7704 34.5148 11.7244C34.3831 11.7146 33.9755 11.6963 33.8914 11.6954C33.8533 11.6951 33.7786 11.7047 33.7299 11.7158C33.6713 11.6903 33.6173 11.655 33.5772 11.6226C33.5696 11.6141 33.57 11.6081 33.5724 11.6023L33.5856 11.581C33.637 11.5941 33.7123 11.6066 33.7623 11.6095C33.8701 11.616 34.3935 11.641 34.5276 11.643L34.5872 11.6185C34.5954 11.615 34.6074 11.6157 34.6191 11.6204C34.6385 11.6316 34.6774 11.6519 34.6926 11.6648C34.7022 11.6714 34.7016 11.6814 34.6971 11.6911L34.6703 11.7376C34.6627 11.7973 34.6368 11.8959 34.6179 11.9449L34.6527 11.965C34.6605 11.9695 34.6623 11.9736 34.6618 11.9816C34.6605 12.0035 34.6493 12.0229 34.6428 12.0305L33.8197 11.9916L33.8077 12.1933C33.8062 12.2192 33.8156 12.2298 33.8395 12.2312C33.9951 12.2425 34.3866 12.2637 34.5087 12.265ZM33.6979 10.9386L33.7142 10.665C33.6838 10.6372 33.6351 10.6143 33.5839 10.5992L33.5965 10.5559C33.5989 10.548 33.6052 10.5444 33.6191 10.5452C33.683 10.549 33.7925 10.5615 33.8397 10.5763C33.8594 10.5815 33.8707 10.5942 33.8694 10.6162L33.86 10.7058L33.8444 10.9693C33.842 11.0092 33.8533 11.0219 33.8911 11.0262C34.0367 11.0368 34.4284 11.0541 34.5525 11.0554L34.6145 11.0231C34.6744 11.0266 34.7618 11.0398 34.8013 11.0502C34.8151 11.053 34.8265 11.0637 34.8257 11.0777C34.8235 11.1136 34.8081 11.1367 34.7996 11.1463C34.7932 11.1519 34.7831 11.1533 34.7731 11.1527L33.862 11.1106C33.7402 11.1034 33.6916 11.0444 33.6979 10.9386ZM36.0268 10.7784L36.0398 10.7611C36.2217 10.802 36.413 10.8194 36.5548 10.8278C36.5728 10.8289 36.5825 10.8334 36.5857 10.8477C36.5925 10.8681 36.586 10.9098 36.5731 10.925C36.5645 10.9346 36.5564 10.9361 36.5444 10.9354C36.4366 10.929 36.2765 10.9255 36.1843 10.926C36.1662 10.9269 36.1584 10.9244 36.1449 10.9156C36.1062 10.8913 36.0571 10.8423 36.0257 10.7964C36.0222 10.7881 36.0226 10.7821 36.0268 10.7784ZM36.2789 11.9314C36.4226 11.9399 36.55 11.8533 36.5593 11.6956C36.5687 11.5379 36.4525 11.4368 36.3088 11.4283C36.165 11.4197 36.0376 11.5063 36.0283 11.664C36.0189 11.8218 36.1351 11.9228 36.2789 11.9314ZM36.3146 11.3304C36.5362 11.3436 36.7155 11.4945 36.7031 11.7041C36.6906 11.9138 36.4947 12.0424 36.2731 12.0292C36.0514 12.016 35.8721 11.8651 35.8845 11.6555C35.897 11.4459 36.093 11.3173 36.3146 11.3304ZM36.6519 11.1161L36.7154 11.0918C36.7693 11.095 36.8525 11.1119 36.8897 11.1262C36.9014 11.1309 36.9088 11.1413 36.9082 11.1513C36.906 11.1893 36.8822 11.2179 36.8657 11.2269C36.8281 11.2187 36.7324 11.211 36.6885 11.2084C36.6086 11.2036 36.103 11.1816 36.0268 11.1831C35.9907 11.183 35.916 11.1925 35.8793 11.2044C35.8266 11.1812 35.7649 11.1395 35.7251 11.1011C35.7175 11.0946 35.7179 11.0886 35.7222 11.0829L35.7356 11.0596C35.7929 11.073 35.8704 11.0837 35.9163 11.0864C36.0001 11.0934 36.5617 11.1167 36.6519 11.1161ZM37.3051 11.5536L37.3712 11.5194C37.4292 11.5209 37.5109 11.5297 37.5463 11.5398C37.562 11.5448 37.5732 11.5595 37.5722 11.5754C37.5722 11.6095 37.5586 11.6367 37.5441 11.6439C37.5357 11.6514 37.5196 11.6525 37.5056 11.6516L37.1579 11.637L37.1277 12.1441C37.1209 12.2599 37.0917 12.4465 37.057 12.5586L36.9732 12.5536C36.9722 12.4694 36.9778 12.2734 36.983 12.1856L37.0657 10.794C37.0343 10.7501 36.9725 10.7104 36.902 10.6821L36.9209 10.6352C36.9232 10.6293 36.9275 10.6255 36.9434 10.6265C37.0152 10.6327 37.1394 10.6662 37.1959 10.6936C37.2135 10.7006 37.2187 10.715 37.2175 10.7349L37.2052 10.8404L37.163 11.5511L37.3051 11.5536ZM39.1364 11.8828L39.2102 11.8551C39.2819 11.8613 39.3869 11.8816 39.432 11.8983C39.4456 11.9051 39.457 11.9158 39.456 11.9338C39.4539 11.9677 39.4282 11.9963 39.4096 12.0052C39.3561 11.996 39.2385 11.985 39.1786 11.9814C39.1108 11.9774 38.8592 11.9625 38.6074 11.9515L38.5907 12.233C38.5843 12.3408 38.5528 12.5333 38.5205 12.6396L38.4366 12.6346C38.4359 12.5444 38.4406 12.3643 38.4462 12.2705L38.4655 11.9451C38.2518 11.9344 38.0619 11.9271 38.0177 11.9285C37.9676 11.9295 37.8647 11.9414 37.8158 11.9546C37.7453 11.9283 37.6739 11.882 37.6265 11.8371C37.6207 11.8328 37.6191 11.8267 37.6214 11.8208L37.6372 11.7917C37.7022 11.8096 37.7956 11.8231 37.8575 11.8268C37.9792 11.836 38.9962 11.8824 39.1364 11.8828ZM38.0507 11.4756L38.0626 11.274C38.0361 11.2484 37.9952 11.2279 37.9499 11.2152L37.9602 11.1778C37.9625 11.1719 37.9689 11.1662 37.9808 11.167C38.0367 11.1703 38.1683 11.1821 38.2177 11.1931C38.3575 11.2014 38.7932 11.2192 38.8794 11.2183L38.92 11.2087C38.9312 11.1553 38.9409 11.0256 38.942 10.9736C38.8062 10.9656 38.4186 10.9485 38.3325 10.9474C38.2964 10.9473 38.2157 10.9565 38.1629 10.9694C38.0984 10.9415 38.0424 10.9062 38.0006 10.8676C37.991 10.861 37.9912 10.857 37.9957 10.8493L38.007 10.8279C38.0623 10.8412 38.1438 10.8521 38.1957 10.8552C38.3014 10.8634 38.803 10.8852 38.9491 10.8879L39.0187 10.862C39.0271 10.8565 39.0431 10.8574 39.0507 10.8639C39.0722 10.8732 39.1088 10.8974 39.1241 10.9103C39.1297 10.9167 39.1311 10.9268 39.1245 10.9364L39.1014 10.9891C39.0933 11.0567 39.0648 11.1652 39.0436 11.2201L39.0825 11.2384C39.0903 11.2429 39.0919 11.249 39.0915 11.257C39.09 11.2809 39.0809 11.3004 39.0704 11.3078L38.2091 11.2707L38.1956 11.4983C38.194 11.5242 38.2034 11.5348 38.2314 11.5365C38.393 11.5481 38.7867 11.5635 38.909 11.5627L38.9667 11.5361C39.0267 11.5376 39.1162 11.549 39.1536 11.5592C39.1695 11.5621 39.1769 11.5726 39.1761 11.5866C39.174 11.6205 39.1627 11.6419 39.1523 11.6493C39.1458 11.6569 39.1377 11.6584 39.1277 11.6578L38.1904 11.6182C38.0825 11.6138 38.0452 11.5675 38.0507 11.4756ZM41.0443 12.3407L41.1179 12.315C41.1897 12.3213 41.2948 12.3396 41.3397 12.3583C41.3535 12.3631 41.3647 12.3758 41.3638 12.3917C41.3618 12.4257 41.3359 12.4562 41.3175 12.4631C41.2639 12.4539 41.1464 12.4429 41.0865 12.4394C40.9468 12.4291 40.0317 12.3867 39.9256 12.3864C39.8754 12.3875 39.7724 12.4014 39.7236 12.4145C39.6531 12.3863 39.5816 12.342 39.5342 12.2971C39.5284 12.2927 39.5268 12.2866 39.5293 12.2787L39.5449 12.2516C39.6101 12.2675 39.7034 12.2811 39.7653 12.2848C39.8252 12.2883 40.0989 12.3026 40.3786 12.3152L40.4065 11.846L40.1187 11.8329C39.997 11.8257 39.9521 11.7709 39.9588 11.6591L39.9864 11.1939C39.952 11.1659 39.9013 11.1428 39.8482 11.1256L39.8608 11.0823C39.8633 11.0744 39.8695 11.0708 39.8815 11.0715C39.9434 11.0752 40.0825 11.0935 40.1398 11.1069C40.3236 11.1158 40.7253 11.1337 40.8354 11.1342L40.8992 11.1059C40.9553 11.1073 41.0447 11.1186 41.0883 11.1272C41.104 11.1321 41.1134 11.1427 41.1125 11.1587C41.1107 11.1886 41.0992 11.214 41.0886 11.2234C41.0821 11.231 41.072 11.2324 41.0581 11.2316L40.1326 11.1946L40.1029 11.6957C40.1008 11.7297 40.112 11.7444 40.1459 11.7464C40.2856 11.7567 40.6892 11.7747 40.8175 11.7743L40.8792 11.7459C40.9371 11.7493 41.0286 11.7608 41.0661 11.771C41.0818 11.7759 41.0912 11.7865 41.0904 11.8005C41.0884 11.8344 41.077 11.8578 41.0665 11.8652C41.0602 11.8708 41.0499 11.8742 41.04 11.8736L40.5463 11.8523L40.5185 12.3215C40.7623 12.332 40.9841 12.3411 41.0443 12.3407ZM32.479 14.6007L32.4375 14.5902C32.4296 14.5878 32.426 14.5815 32.4289 14.5657C32.4858 14.3166 32.5311 13.9587 32.5451 13.7231C32.3694 13.7126 31.8938 13.6924 31.7916 13.6923C31.7396 13.6913 31.6468 13.7018 31.5979 13.7149C31.5394 13.6894 31.4738 13.6454 31.4321 13.6069C31.4226 13.5983 31.4209 13.5922 31.4254 13.5844L31.4408 13.5613C31.5 13.5768 31.5795 13.5876 31.6334 13.5908C31.7412 13.5972 32.3886 13.6256 32.5467 13.629L32.6227 13.5975C32.6329 13.5941 32.6469 13.5949 32.6567 13.5995C32.6799 13.6129 32.7222 13.6434 32.7393 13.6585C32.7488 13.6671 32.7483 13.6751 32.7437 13.6848L32.7099 13.7489C32.6918 13.9862 32.6023 14.3456 32.5037 14.5882C32.4992 14.5979 32.4889 14.6013 32.479 14.6007ZM32.6396 14.8306L32.7133 14.805C32.785 14.8112 32.8901 14.8295 32.9351 14.8482C32.9488 14.853 32.9601 14.8657 32.9591 14.8817C32.9571 14.9156 32.9314 14.9441 32.9128 14.9531C32.8593 14.9439 32.7417 14.9329 32.6818 14.9293C32.5422 14.919 31.6271 14.8767 31.5209 14.8764C31.4708 14.8774 31.3678 14.8913 31.3189 14.9044C31.2485 14.8762 31.1771 14.8299 31.1295 14.787C31.1238 14.7827 31.1223 14.7746 31.1246 14.7687L31.1403 14.7416C31.2054 14.7575 31.2988 14.771 31.3607 14.7747C31.4146 14.7779 31.6422 14.7914 31.894 14.8024L31.9222 14.2591C31.8958 14.2315 31.8475 14.2026 31.7985 14.1836L31.8132 14.1384C31.8154 14.1345 31.8197 14.1308 31.8356 14.1317C31.8975 14.1354 32.0104 14.1581 32.0593 14.1771C32.075 14.184 32.0804 14.1944 32.0794 14.2103L32.0644 14.2936L32.0279 14.8083C32.3036 14.8207 32.5715 14.8306 32.6396 14.8306ZM33.9585 14.4782L33.657 14.1237C33.5374 14.2809 33.3725 14.4274 33.169 14.5475C33.1606 14.553 33.1546 14.5527 33.147 14.5462L33.1282 14.5251C33.1227 14.5167 33.123 14.5127 33.1334 14.5054C33.3919 14.3023 33.5878 14.0395 33.664 13.8036C33.6459 13.7705 33.6041 13.7319 33.5557 13.703L33.5824 13.6585C33.5868 13.6527 33.5929 13.6511 33.6047 13.6538C33.6759 13.6701 33.7737 13.7099 33.8121 13.7383C33.8275 13.7492 33.8328 13.7615 33.8318 13.7775C33.8329 13.7936 33.8299 13.8094 33.8253 13.8192C33.7987 13.8957 33.7602 13.9716 33.7116 14.0468L33.9128 14.2692L33.9926 14.308C34.0184 14.3456 34.0509 14.4056 34.063 14.4384C34.0697 14.4608 34.0709 14.4749 34.0643 14.4845C34.0529 14.5079 34.0181 14.5198 33.9966 14.5106C33.9848 14.5078 33.9696 14.4929 33.9585 14.4782ZM34.2038 15.2722C34.3675 15.2819 34.493 15.1932 34.5024 15.0355C34.5116 14.8797 34.3977 14.7748 34.2339 14.7651C34.0702 14.7554 33.9466 14.8462 33.9374 15.0019C33.928 15.1596 34.0401 15.2625 34.2038 15.2722ZM34.2395 14.6712C34.4891 14.6861 34.6623 14.8386 34.6501 15.0443C34.6373 15.2599 34.4469 15.3968 34.1973 15.382C33.9477 15.3672 33.7748 15.2086 33.7876 14.993C33.7999 14.7874 33.99 14.6564 34.2395 14.6712ZM34.4828 13.5437L34.5015 13.4987C34.504 13.4908 34.5102 13.4872 34.5242 13.488C34.592 13.4941 34.7103 13.5251 34.7608 13.5522C34.7784 13.5592 34.7856 13.5737 34.7825 13.5915L34.7707 13.689L34.7278 14.4117C34.7215 14.5176 34.6951 14.6582 34.6644 14.7366L34.5805 14.7316C34.5766 14.6632 34.581 14.5212 34.5853 14.4494L34.6001 14.1998L34.3402 14.1904L34.3356 14.2682C34.3287 14.384 34.3029 14.5147 34.2724 14.5891L34.1926 14.5843C34.1866 14.5158 34.1926 14.382 34.1972 14.3041L34.2317 13.7231C34.2059 13.6855 34.1519 13.6503 34.0952 13.6268L34.1139 13.5819C34.1164 13.574 34.1226 13.5704 34.1386 13.5713C34.2003 13.577 34.3087 13.6075 34.3553 13.6323C34.371 13.6392 34.3762 13.6516 34.3752 13.6695L34.366 13.7571L34.3453 14.1045L34.6052 14.1139L34.6328 13.6488C34.6033 13.6069 34.5474 13.5696 34.4828 13.5437ZM36.6304 14.2162L36.6964 14.1841C36.7544 14.1855 36.836 14.1944 36.8715 14.2045C36.8872 14.2095 36.8984 14.2241 36.8975 14.2381C36.8974 14.2742 36.8839 14.2994 36.8693 14.3086C36.861 14.3141 36.8447 14.3171 36.8308 14.3163L36.483 14.3016C36.4727 14.4072 36.4484 14.514 36.4209 14.5724L36.335 14.5673C36.3308 14.503 36.3366 14.3711 36.3409 14.2992L36.3731 13.7582C36.3396 13.7141 36.2799 13.6745 36.2094 13.6463L36.2282 13.5993C36.2306 13.5934 36.2368 13.5898 36.2508 13.5906C36.3245 13.597 36.4468 13.6303 36.5013 13.6576C36.5189 13.6647 36.524 13.679 36.5228 13.6989L36.5127 13.8025L36.4882 14.2138L36.6304 14.2162ZM36.4964 14.8514L36.5517 14.8327C36.5995 14.8375 36.6726 14.8539 36.7038 14.8677C36.7156 14.8724 36.723 14.8829 36.7224 14.8929C36.7207 14.9208 36.6973 14.9435 36.6829 14.9506C36.6512 14.9448 36.5694 14.9379 36.5295 14.9355C36.4596 14.9314 36.0257 14.9176 35.9614 14.9198C35.9254 14.9197 35.8588 14.9277 35.8261 14.9378C35.7793 14.917 35.7233 14.8816 35.6911 14.8496C35.6835 14.8432 35.684 14.8352 35.6862 14.8313L35.6995 14.8101C35.7489 14.821 35.8165 14.831 35.8584 14.8335C35.9342 14.838 36.4161 14.8547 36.4964 14.8514ZM35.4525 14.8876L35.43 15.2649C35.429 15.2829 35.4345 15.2912 35.4545 15.2924C35.5707 15.2913 35.7302 15.2707 35.8522 15.2419L35.8533 15.2219C35.8619 15.0782 35.9963 14.974 36.1939 14.9857C36.3916 14.9974 36.5107 15.1167 36.5022 15.2605C36.4935 15.4062 36.361 15.5125 36.1633 15.5008C36.0076 15.4915 35.8981 15.4129 35.8642 15.3087C35.7412 15.3555 35.589 15.3885 35.462 15.401C35.4438 15.404 35.4136 15.4062 35.4037 15.4056C35.3498 15.4024 35.3118 15.3661 35.2968 15.3151C35.2936 15.3029 35.2929 15.2808 35.295 15.2448L35.3185 14.8495C35.2901 14.8218 35.2415 14.7969 35.1903 14.7818L35.203 14.7365C35.2056 14.7266 35.2137 14.7251 35.2257 14.7258C35.2856 14.7294 35.391 14.7417 35.4343 14.7542C35.4539 14.7614 35.4632 14.774 35.462 14.794L35.4525 14.8876ZM36.169 15.405C36.2888 15.4121 36.3666 15.3506 36.3724 15.2528C36.3782 15.1549 36.3084 15.0827 36.1886 15.0755C36.0688 15.0684 35.9909 15.1319 35.9851 15.2298C35.9793 15.3276 36.0493 15.3979 36.169 15.405ZM35.9439 14.6082L35.9591 14.5891C36.1149 14.6304 36.2683 14.6455 36.394 14.653C36.41 14.6539 36.4178 14.6584 36.421 14.6706C36.4258 14.6909 36.4217 14.7268 36.411 14.7381C36.4044 14.7478 36.3963 14.7493 36.3863 14.7487C36.2965 14.7434 36.1726 14.738 36.0964 14.7395C36.0804 14.7385 36.0745 14.7362 36.0628 14.7315C36.0222 14.707 35.9766 14.6643 35.9469 14.6244C35.9414 14.6161 35.9417 14.6121 35.9439 14.6082ZM35.2938 14.5576L35.2159 14.5529C35.2098 14.5205 35.2064 14.4762 35.2046 14.4401L35.1957 13.8806C35.1751 13.8573 35.1346 13.8308 35.0955 13.8145L35.1081 13.7712C35.1104 13.7653 35.1165 13.7637 35.1285 13.7644C35.1884 13.7679 35.3037 13.7828 35.3609 13.7982C35.4867 13.8057 35.7425 13.8169 35.8667 13.8162L35.9389 13.7825C35.9451 13.7788 35.9611 13.7798 35.9688 13.7842C35.9921 13.7976 36.0365 13.8243 36.0557 13.8395C36.0613 13.8458 36.0628 13.8539 36.0581 13.8657L36.0283 13.93C36.0134 14.0794 35.9869 14.2561 35.9559 14.4066L35.9889 14.4246C35.9986 14.4291 36.0021 14.4374 36.0015 14.4473C35.9999 14.4753 35.9885 14.4987 35.9779 14.5081L35.3246 14.4773C35.3187 14.509 35.3092 14.5344 35.2938 14.5576ZM35.3537 13.8859L35.3338 14.3896C35.4674 14.3996 35.6953 14.4091 35.8034 14.4095L35.84 14.4017L35.8754 13.9069C35.7156 13.8974 35.5178 13.8897 35.3537 13.8859ZM37.5096 13.98C37.3438 13.9701 37.2094 14.0743 37.199 14.25C37.1884 14.4277 37.3097 14.5451 37.4754 14.5549C37.6411 14.5648 37.7754 14.4626 37.786 14.2849C37.7964 14.1092 37.6753 13.9898 37.5096 13.98ZM37.4689 14.6648C37.2173 14.6498 37.0395 14.4729 37.0532 14.2414C37.0668 14.0138 37.2643 13.8592 37.5158 13.8741C37.7654 13.889 37.9432 14.0658 37.9297 14.2934C37.9159 14.525 37.7184 14.6796 37.4689 14.6648ZM37.7246 15.3852L37.5535 15.1626C37.4369 15.304 37.2731 15.4305 37.075 15.5269C37.0626 15.5342 37.0586 15.534 37.0508 15.5295L37.0301 15.5082C37.0246 15.4999 37.0268 15.496 37.0353 15.4885C37.2627 15.3357 37.4429 15.136 37.5238 14.9545C37.5056 14.9234 37.4638 14.8848 37.4192 14.8602L37.4458 14.8177C37.4501 14.8119 37.4562 14.8103 37.4701 14.8131C37.5374 14.8271 37.6294 14.8626 37.6679 14.889C37.6813 14.8998 37.6887 14.9102 37.6876 14.9282C37.6867 14.9442 37.6819 14.9579 37.6773 14.9676C37.6588 15.0086 37.6344 15.0492 37.6079 15.0897L37.7227 15.2148L37.7809 15.2463C37.7951 15.2772 37.8124 15.3243 37.8188 15.3507C37.8218 15.3669 37.8231 15.379 37.8185 15.3888C37.8074 15.4081 37.7807 15.4186 37.761 15.4134C37.7491 15.4107 37.7359 15.3979 37.7246 15.3852ZM38.3885 15.3385L38.466 15.3832C38.4916 15.4247 38.5179 15.4884 38.5279 15.5211C38.5365 15.5456 38.5356 15.5616 38.5289 15.5732C38.5177 15.5926 38.487 15.6028 38.4654 15.5955C38.4556 15.5929 38.4385 15.5759 38.4254 15.5611L38.1649 15.225C38.0484 15.3644 37.8884 15.4951 37.6959 15.5979C37.6855 15.6053 37.6795 15.6049 37.6738 15.5986L37.655 15.5794C37.6474 15.5709 37.6477 15.5669 37.6581 15.5596C37.8946 15.3893 38.0801 15.1679 38.1581 14.9682C38.1423 14.9312 38.0988 14.8865 38.0525 14.8577L38.079 14.8152C38.0835 14.8075 38.0897 14.8038 38.1035 14.8086C38.1704 14.8286 38.2678 14.8745 38.3042 14.9027C38.3196 14.9136 38.3268 14.9281 38.3259 14.9421C38.325 14.958 38.32 14.9738 38.3155 14.9835C38.292 15.0402 38.2608 15.0945 38.2214 15.1502L38.3885 15.3385ZM38.558 14.3408L38.6241 14.3066C38.6822 14.3081 38.7638 14.3169 38.7992 14.3271C38.815 14.332 38.8261 14.3467 38.8252 14.3627C38.825 14.3987 38.8115 14.424 38.7971 14.4311C38.7886 14.4386 38.7724 14.4417 38.7584 14.4408L38.4108 14.4242L38.4075 14.4801C38.4004 14.5999 38.3744 14.7326 38.342 14.8068L38.2581 14.8018C38.2541 14.7354 38.2585 14.5935 38.263 14.5176L38.3013 13.8727C38.2699 13.8288 38.2081 13.7891 38.1396 13.7609L38.1565 13.7139C38.1608 13.7081 38.1651 13.7044 38.181 13.7053C38.2528 13.7116 38.375 13.7449 38.4315 13.7723C38.4471 13.7792 38.4543 13.7937 38.4531 13.8136L38.4409 13.9171L38.4159 14.3383L38.558 14.3408ZM39.4307 14.9216C39.6044 14.9319 39.7433 14.8199 39.7554 14.6163C39.7674 14.4146 39.6429 14.285 39.4692 14.2747C39.2955 14.2644 39.1585 14.3785 39.1465 14.5801C39.1344 14.7837 39.257 14.9112 39.4307 14.9216ZM40.1857 13.8825L40.2045 13.8355C40.2069 13.8297 40.2111 13.8259 40.2271 13.8269C40.2988 13.8331 40.423 13.8665 40.4795 13.8939C40.4971 13.901 40.5023 13.9153 40.5011 13.9353L40.4888 14.0408L40.4114 15.3445C40.4045 15.4603 40.3754 15.6469 40.3407 15.759L40.2568 15.754C40.2558 15.6698 40.2614 15.4738 40.2667 15.3859L40.3094 14.6672C40.2416 14.6612 40.1496 14.6577 40.1094 14.6613C40.0712 14.6631 40.0143 14.6757 39.9776 14.6876C39.9502 14.6759 39.9231 14.6603 39.9 14.6449C39.8754 14.8899 39.6796 15.0485 39.4241 15.0334C39.1606 15.0177 38.9794 14.8286 38.9947 14.5711C39.0099 14.3155 39.2121 14.1492 39.4757 14.1649C39.7153 14.1791 39.8842 14.3374 39.901 14.5608C39.9368 14.5649 39.9747 14.5672 40.0066 14.5691C40.0705 14.5729 40.2185 14.5777 40.3147 14.5774L40.3493 13.9944C40.3179 13.9505 40.2561 13.9107 40.1857 13.8825ZM42.2788 15.4374L42.3524 15.4117C42.4242 15.418 42.5293 15.4362 42.5743 15.4549C42.588 15.4597 42.5993 15.4724 42.5983 15.4884C42.5963 15.5224 42.5706 15.5509 42.552 15.5598C42.4985 15.5506 42.3809 15.5396 42.321 15.536C42.1814 15.5258 41.2663 15.4834 41.1601 15.4831C41.11 15.4841 41.0071 15.4961 40.9582 15.5092C40.8876 15.4829 40.8163 15.4366 40.7687 15.3937C40.7631 15.3874 40.7614 15.3813 40.7638 15.3754L40.7794 15.3483C40.8446 15.3642 40.938 15.3777 40.9999 15.3814C41.0418 15.3839 41.1835 15.3923 41.3593 15.4008L41.3578 15.1563C41.3354 15.1289 41.2911 15.1002 41.2438 15.0854L41.2566 15.04C41.2569 15.0341 41.2631 15.0304 41.2791 15.0314C41.341 15.035 41.4401 15.053 41.4892 15.0699C41.5029 15.0747 41.5103 15.0852 41.5073 15.103L41.5002 15.1888L41.4872 15.4064L41.9448 15.4275L41.9765 15.163C41.9565 15.1297 41.9143 15.0972 41.8696 15.0745L41.8881 15.0335C41.8925 15.0257 41.8986 15.0241 41.9106 15.0248C41.9741 15.0346 42.0667 15.0621 42.1113 15.0868C42.1289 15.0939 42.1343 15.1042 42.1314 15.1201L42.1104 15.203L42.0688 15.4309C42.1707 15.435 42.2467 15.4375 42.2788 15.4374ZM41.7018 14.9643C41.4084 14.9469 41.2009 14.7623 41.2159 14.5107C41.2308 14.2591 41.4586 14.1004 41.7521 14.1178C42.0436 14.1351 42.251 14.3198 42.2361 14.5713C42.2211 14.8229 41.9933 14.9816 41.7018 14.9643ZM41.7461 14.2196C41.5444 14.2077 41.3796 14.3181 41.3676 14.5197C41.3556 14.7214 41.5062 14.8505 41.7079 14.8625C41.9095 14.8745 42.0724 14.7639 42.0843 14.5623C42.0963 14.3607 41.9477 14.2316 41.7461 14.2196ZM42.9526 15.7238C42.8768 15.7193 42.8244 15.6561 42.8287 15.5842C42.8331 15.5104 42.8927 15.4518 42.9685 15.4563C43.0444 15.4608 43.0966 15.526 43.0922 15.5999C43.088 15.6718 43.0285 15.7283 42.9526 15.7238ZM43.7864 15.8876L45.7828 16.0062L45.9014 14.0097L43.905 13.8911L43.7864 15.8876Z" fill="black"/>
<path d="M26.6213 3.22197C26.6943 1.99481 27.7482 1.0591 28.9753 1.13201L54.3692 2.64068C55.5964 2.71359 56.5321 3.7675 56.4592 4.99466L53.9699 46.8946C53.8969 48.1217 52.843 49.0574 51.6159 48.9845L26.222 47.4759C24.9948 47.403 24.0591 46.349 24.132 45.1219L26.6213 3.22197Z" fill="white" fill-opacity="0.5"/>
</svg>
