<svg width="17" height="19" viewBox="0 0 17 19" fill="none" xmlns="http://www.w3.org/2000/svg">
<path d="M16.8071 13.8797C16.3156 13.0064 15.585 10.5354 15.585 7.30801C15.585 5.3698 14.8386 3.51098 13.51 2.14047C12.1814 0.769949 10.3794 0 8.50044 0C6.6215 0 4.81952 0.769949 3.4909 2.14047C2.16229 3.51098 1.41589 5.3698 1.41589 7.30801C1.41589 10.5363 0.684404 13.0064 0.192913 13.8797C0.067402 14.1018 0.000863692 14.354 8.35178e-06 14.611C-0.000846988 14.868 0.064011 15.1207 0.188042 15.3436C0.312072 15.5665 0.490889 15.7517 0.70646 15.8806C0.92203 16.0095 1.16673 16.0774 1.41589 16.0776H5.02989C5.19335 16.9027 5.62803 17.6441 6.26042 18.1766C6.89282 18.7091 7.6841 19 8.50044 19C9.31678 19 10.1081 18.7091 10.7405 18.1766C11.3729 17.6441 11.8075 16.9027 11.971 16.0776H15.585C15.8341 16.0773 16.0787 16.0092 16.2941 15.8803C16.5096 15.7513 16.6883 15.5661 16.8122 15.3432C16.9361 15.1203 17.0009 14.8677 17 14.6108C16.9991 14.3538 16.9326 14.1017 16.8071 13.8797ZM8.50044 17.5392C8.06104 17.5391 7.63248 17.3985 7.27375 17.1367C6.91502 16.875 6.64375 16.505 6.49728 16.0776H10.5036C10.3571 16.505 10.0859 16.875 9.72714 17.1367C9.3684 17.3985 8.93985 17.5391 8.50044 17.5392Z" fill="white"/>
</svg>
