<svg width="267" height="45" viewBox="0 0 267 45" fill="none" xmlns="http://www.w3.org/2000/svg">
<path d="M0 0H245C257.15 0 267 9.84974 267 22V23C267 35.1503 257.15 45 245 45H0V0Z" fill="#191919" fill-opacity="0.5"/>
<path d="M44.3125 20.85V19.75C44.3125 18.21 43.075 17 41.5 17C39.925 17 38.6875 18.21 38.6875 19.75V20.85C37.7312 20.85 37 21.565 37 22.5V26.35C37 27.285 37.7312 28 38.6875 28H44.3125C45.2688 28 46 27.285 46 26.35V22.5C46 21.565 45.2688 20.85 44.3125 20.85ZM39.8125 19.75C39.8125 18.815 40.5438 18.1 41.5 18.1C42.4563 18.1 43.1875 18.815 43.1875 19.75V20.85H39.8125V19.75Z" fill="white"/>
<path d="M59.7462 20.208L60.0182 20.088C60.2662 20.096 60.6262 20.136 60.7782 20.192C60.8342 20.216 60.8662 20.256 60.8662 20.296C60.8662 20.44 60.7782 20.56 60.7222 20.592C60.5542 20.568 60.1222 20.56 59.9302 20.56C59.5302 20.56 57.0262 20.584 56.6342 20.608C56.4822 20.616 56.1622 20.68 56.0102 20.736C55.7782 20.656 55.4982 20.504 55.3142 20.352C55.2902 20.336 55.2902 20.312 55.2982 20.288L55.3462 20.184C55.5942 20.232 55.9382 20.264 56.1382 20.264C56.5302 20.264 59.3062 20.232 59.7462 20.208ZM55.3302 23.288L55.3782 23.192C55.6262 23.232 55.9702 23.264 56.1702 23.264L56.8342 23.256L56.7302 21.584C56.6422 21.464 56.4742 21.344 56.2822 21.264L56.3542 21.088C56.3622 21.064 56.3782 21.048 56.4342 21.056C56.6822 21.08 57.0422 21.16 57.2262 21.232C57.2822 21.264 57.3062 21.296 57.2982 21.36L57.2902 21.696L57.3302 23.256C57.8742 23.248 58.5062 23.24 58.9862 23.232L59.0262 21.336C58.9382 21.232 58.7622 21.136 58.5782 21.08L58.6182 20.912C58.6262 20.888 58.6502 20.872 58.7062 20.872C58.9542 20.872 59.3382 20.92 59.5302 20.976C59.5942 21 59.6182 21.04 59.6182 21.104L59.5862 21.44L59.4742 23.224C59.5862 23.224 59.6742 23.216 59.7222 23.216L59.9782 23.088C60.2262 23.096 60.5942 23.144 60.7462 23.2C60.7942 23.216 60.8342 23.256 60.8342 23.296C60.8342 23.44 60.7462 23.56 60.6822 23.592C60.5222 23.568 60.0822 23.56 59.8982 23.56C59.4982 23.56 57.0502 23.584 56.6662 23.608C56.5142 23.616 56.1942 23.68 56.0422 23.736C55.8102 23.656 55.5302 23.504 55.3462 23.36C55.3222 23.336 55.3222 23.312 55.3302 23.288ZM60.5142 25.024L60.8022 24.896C61.0902 24.904 61.5142 24.952 61.6982 25.016C61.7542 25.032 61.8022 25.08 61.8022 25.152C61.8022 25.288 61.7062 25.408 61.6342 25.44C61.4182 25.416 60.9462 25.4 60.7062 25.4C60.1462 25.4 56.4822 25.44 56.0582 25.464C55.8582 25.48 55.4502 25.56 55.2582 25.624C54.9702 25.528 54.6742 25.368 54.4742 25.2C54.4502 25.184 54.4422 25.16 54.4502 25.128L54.5062 25.016C54.7702 25.064 55.1462 25.096 55.3942 25.104C55.8822 25.112 59.9542 25.056 60.5142 25.024ZM67.1768 19.408L67.2408 19.216C67.2488 19.192 67.2648 19.176 67.3288 19.176C67.6248 19.184 68.1208 19.288 68.3528 19.384C68.4248 19.408 68.4488 19.464 68.4488 19.544L68.4328 19.968V25.192C68.4328 25.656 68.3528 26.408 68.2408 26.864H67.9048C67.8808 26.528 67.8648 25.744 67.8648 25.392V24.144C66.7128 24.504 65.1528 24.76 64.0888 24.832C63.9928 24.84 63.8968 24.84 63.8248 24.84C63.5608 24.84 63.3848 24.68 63.3048 24.44C63.2808 24.368 63.2648 24.232 63.2648 24.08V22.664C63.1528 22.568 62.9768 22.496 62.7928 22.456L62.8168 22.296C62.8248 22.272 62.8568 22.256 62.9048 22.256C63.1288 22.256 63.6408 22.264 63.8648 22.288C64.3128 22.28 65.3288 22.256 65.5688 22.24L65.7048 22.192C65.7368 21.88 65.7448 21.032 65.7288 20.736C65.3688 20.736 64.3048 20.76 64.0807 20.784C63.9368 20.792 63.6648 20.848 63.4808 20.904C63.2488 20.816 63.0328 20.68 62.8648 20.56C62.8328 20.528 62.8328 20.504 62.8408 20.48L62.8968 20.376C63.0968 20.424 63.3928 20.44 63.5848 20.44C63.8968 20.448 65.3688 20.408 65.7608 20.384L65.9848 20.264C66.0248 20.24 66.0807 20.24 66.1208 20.264C66.2088 20.304 66.3767 20.4 66.4408 20.448C66.4728 20.472 66.4728 20.512 66.4568 20.552L66.3688 20.768C66.3608 21.16 66.2648 21.856 66.1927 22.2L66.3528 22.28C66.3767 22.296 66.3928 22.32 66.3928 22.36C66.3928 22.44 66.3528 22.528 66.3208 22.568L63.8568 22.64V24.2C63.8568 24.304 63.8888 24.344 64.0008 24.344C65.0248 24.336 66.7608 24.128 67.8648 23.824V19.816C67.7208 19.648 67.4648 19.504 67.1768 19.408ZM74.9433 19.408L74.9993 19.216C75.0073 19.192 75.0313 19.176 75.0873 19.176C75.3833 19.184 75.8873 19.288 76.1193 19.384C76.1833 19.408 76.2153 19.464 76.2153 19.544L76.1913 19.968V25.192C76.1913 25.656 76.1193 26.408 75.9993 26.864H75.6713C75.6393 26.528 75.6233 25.744 75.6233 25.392V19.816C75.4793 19.648 75.2233 19.504 74.9433 19.408ZM73.4713 20.752L73.7433 20.6C73.7753 20.576 73.8393 20.576 73.8793 20.6C73.9673 20.64 74.1513 20.744 74.2313 20.8C74.2553 20.824 74.2633 20.848 74.2473 20.896L74.1433 21.16C74.1273 21.96 74.0473 22.944 73.9593 23.76L74.1193 23.824C74.1593 23.84 74.1753 23.872 74.1753 23.912C74.1753 24.024 74.1273 24.12 74.0873 24.168L71.3513 24.2C71.3353 24.336 71.2953 24.456 71.2473 24.56H70.9273C70.8873 24.424 70.8633 24.224 70.8473 24.064L70.6793 21.168C70.5913 21.072 70.4233 20.976 70.2633 20.928L70.3033 20.752C70.3113 20.728 70.3273 20.712 70.3833 20.712C70.6233 20.712 71.0873 20.752 71.3193 20.792C71.8553 20.8 72.9433 20.784 73.4713 20.752ZM71.3113 21.144L71.3673 23.84C71.9353 23.848 72.9033 23.832 73.3433 23.816L73.4953 23.768L73.5193 21.112C72.8313 21.112 71.9913 21.12 71.3113 21.144ZM83.2059 24.096L83.4699 23.976C83.5019 23.96 83.5579 23.96 83.5979 23.976C83.6859 24.016 83.8619 24.104 83.9259 24.152C83.9579 24.168 83.9579 24.2 83.9419 24.24L83.8619 24.512C83.8299 25.008 83.7659 25.576 83.6699 26.104L83.8219 26.168C83.8539 26.184 83.8779 26.216 83.8779 26.256C83.8779 26.368 83.8299 26.472 83.7819 26.512L80.7259 26.56C80.7099 26.648 80.6779 26.712 80.6379 26.776H80.3179C80.2779 26.672 80.2459 26.528 80.2379 26.384L80.0859 24.512C79.9979 24.424 79.8379 24.328 79.6779 24.272L79.7179 24.112C79.7259 24.088 79.7499 24.072 79.7899 24.072C80.0299 24.072 80.4539 24.12 80.6859 24.16C81.2939 24.152 82.5979 24.136 83.2059 24.096ZM80.6939 24.52L80.7499 26.192C81.4139 26.192 82.5259 26.176 83.0539 26.144L83.2139 26.104L83.2459 24.48C82.4379 24.472 81.4859 24.504 80.6939 24.52ZM83.3659 22.624V21.696C83.0859 21.688 82.6939 21.696 82.5259 21.72C82.3819 21.736 82.1659 21.792 82.0219 21.848C81.9019 21.8 81.7979 21.752 81.6939 21.688C81.6699 22.608 80.9339 23.248 79.9419 23.248C78.9259 23.248 78.1819 22.584 78.1819 21.648C78.1819 20.728 78.9259 20.056 79.9419 20.056C80.8459 20.056 81.5419 20.6 81.6699 21.376C81.8139 21.392 81.9739 21.392 82.1099 21.392C82.3739 21.392 82.9739 21.376 83.3659 21.352V19.816C83.2299 19.648 82.9739 19.504 82.6939 19.408L82.7499 19.216C82.7659 19.192 82.7819 19.176 82.8459 19.176C83.1339 19.184 83.6299 19.288 83.8619 19.384C83.9339 19.408 83.9579 19.464 83.9579 19.544L83.9339 19.96V22.448C83.9339 22.928 83.8699 23.456 83.7499 23.768H83.4139C83.3819 23.496 83.3659 22.928 83.3659 22.624ZM78.7659 21.648C78.7659 22.368 79.2779 22.816 79.9419 22.816C80.6059 22.816 81.1179 22.368 81.1179 21.648C81.1179 20.928 80.6059 20.48 79.9419 20.48C79.2779 20.48 78.7659 20.928 78.7659 21.648ZM93.4829 25.12L93.7709 25C94.0589 25.008 94.4829 25.056 94.6669 25.12C94.7229 25.136 94.7709 25.184 94.7709 25.248C94.7709 25.384 94.6749 25.504 94.6029 25.544C94.3869 25.52 93.9149 25.504 93.6749 25.504C93.1149 25.496 89.4509 25.544 89.0269 25.568C88.8269 25.584 88.4189 25.656 88.2269 25.72C87.9389 25.632 87.6429 25.464 87.4429 25.304C87.4189 25.28 87.4109 25.256 87.4189 25.232L87.4749 25.12C87.7389 25.168 88.1149 25.2 88.3629 25.2C88.5309 25.2 89.0989 25.2 89.8029 25.192L89.7389 24.216C89.6429 24.112 89.4589 24.008 89.2669 23.96L89.3069 23.776C89.3069 23.752 89.3309 23.736 89.3949 23.736C89.6429 23.736 90.0429 23.784 90.2429 23.84C90.2989 23.856 90.3309 23.896 90.3229 23.968L90.3149 24.312V25.184L92.1469 25.16L92.2109 24.096C92.1229 23.968 91.9469 23.848 91.7629 23.768L91.8269 23.6C91.8429 23.568 91.8669 23.56 91.9149 23.56C92.1709 23.584 92.5469 23.672 92.7309 23.76C92.8029 23.784 92.8269 23.824 92.8189 23.888L92.7549 24.224L92.6429 25.144C93.0509 25.136 93.3549 25.128 93.4829 25.12ZM91.0669 23.368C89.8909 23.368 89.0189 22.68 89.0189 21.672C89.0189 20.664 89.8909 19.976 91.0669 19.976C92.2349 19.976 93.1069 20.664 93.1069 21.672C93.1069 22.68 92.2349 23.368 91.0669 23.368ZM91.0669 20.384C90.2589 20.384 89.6269 20.864 89.6269 21.672C89.6269 22.48 90.2589 22.96 91.0669 22.96C91.8749 22.96 92.4989 22.48 92.4989 21.672C92.4989 20.864 91.8749 20.384 91.0669 20.384ZM101.21 22.52L101.498 22.392C101.786 22.4 102.21 22.448 102.394 22.512C102.45 22.528 102.498 22.576 102.498 22.648C102.498 22.784 102.402 22.904 102.33 22.944C102.114 22.92 101.642 22.904 101.402 22.904C100.842 22.896 97.1775 22.936 96.7535 22.968C96.5535 22.984 96.1455 23.056 95.9535 23.12C95.6655 23.024 95.3695 22.864 95.1695 22.696C95.1455 22.68 95.1375 22.656 95.1455 22.624L95.2015 22.512C95.4655 22.56 95.8415 22.592 96.0895 22.6C96.4495 22.608 98.7375 22.576 100.154 22.552C100.306 21.856 100.418 20.856 100.434 20.208C99.7935 20.2 98.0495 20.224 97.6815 20.248C97.4975 20.256 97.1615 20.32 96.9775 20.384C96.7295 20.296 96.4735 20.152 96.2895 20C96.2495 19.976 96.2415 19.952 96.2575 19.92L96.3055 19.816C96.5535 19.864 96.8735 19.888 97.1055 19.888C97.5135 19.896 99.8975 19.856 100.45 19.832L100.722 19.696C100.762 19.68 100.818 19.68 100.858 19.696C100.946 19.736 101.138 19.84 101.202 19.896C101.234 19.92 101.234 19.952 101.218 20L101.106 20.256C101.034 20.928 100.802 21.864 100.522 22.544C100.85 22.536 101.098 22.528 101.21 22.52ZM100.17 24.016L100.426 23.896C100.466 23.88 100.514 23.88 100.554 23.896C100.65 23.936 100.818 24.024 100.89 24.072C100.914 24.088 100.914 24.12 100.906 24.16L100.818 24.432C100.794 24.928 100.722 25.52 100.634 26.032L100.794 26.104C100.834 26.12 100.85 26.16 100.85 26.2C100.85 26.304 100.802 26.408 100.754 26.456L97.5935 26.488C97.5775 26.568 97.5455 26.632 97.4975 26.696H97.1775C97.1375 26.6 97.1055 26.456 97.0975 26.32L96.9615 24.424C96.8815 24.336 96.7215 24.24 96.5615 24.176L96.6015 24.016C96.6095 23.992 96.6255 23.984 96.6735 23.984C96.9135 23.984 97.3375 24.024 97.5695 24.064C98.1935 24.064 99.5535 24.048 100.17 24.016ZM97.5775 24.432L97.6095 26.128C98.3055 26.136 99.4735 26.112 100.026 26.08L100.178 26.04L100.21 24.4C99.3775 24.392 98.3855 24.408 97.5775 24.432ZM108.272 19.408L108.328 19.224C108.344 19.192 108.368 19.176 108.424 19.176C108.696 19.184 109.176 19.28 109.376 19.376C109.456 19.4 109.48 19.456 109.472 19.528L109.456 19.92V25.272C109.456 25.712 109.384 26.432 109.264 26.864H108.944C108.912 26.552 108.896 25.808 108.896 25.464V19.792C108.768 19.632 108.528 19.496 108.272 19.408ZM106.936 19.968L107 19.784C107.016 19.76 107.04 19.744 107.096 19.744C107.352 19.752 107.784 19.84 107.984 19.928C108.04 19.96 108.064 20.008 108.064 20.08L108.048 20.432V24.76C108.048 25.192 107.976 25.888 107.864 26.312H107.552C107.52 25.984 107.504 25.288 107.504 24.952V22.776C107.36 22.784 107.192 22.8 107.12 22.808C106.976 22.824 106.776 22.872 106.632 22.928C106.432 22.84 106.24 22.736 106.096 22.616C106.072 22.584 106.064 22.568 106.072 22.536L106.12 22.448C106.304 22.472 106.528 22.48 106.728 22.48C106.92 22.48 107.248 22.472 107.504 22.456V20.32C107.392 20.176 107.168 20.048 106.936 19.968ZM106.184 23.544L106.488 23.712C106.592 23.888 106.712 24.16 106.76 24.312C106.792 24.416 106.792 24.48 106.76 24.528C106.712 24.608 106.568 24.64 106.488 24.6C106.448 24.592 106.384 24.52 106.336 24.456L105.248 22.984C104.688 23.68 103.984 24.336 103.216 24.832C103.184 24.864 103.16 24.864 103.136 24.856L103.056 24.776C103.032 24.76 103.024 24.744 103.048 24.704C104.312 23.648 105.248 22.264 105.664 21.072C105.28 21.072 104.52 21.088 104.344 21.104C104.2 21.112 103.936 21.168 103.8 21.216C103.6 21.136 103.376 21 103.232 20.872C103.2 20.84 103.192 20.824 103.208 20.8L103.256 20.712C103.448 20.744 103.712 20.752 103.896 20.752C104.152 20.752 105.392 20.744 105.76 20.728L106.008 20.6C106.04 20.584 106.096 20.584 106.136 20.6C106.224 20.64 106.4 20.72 106.456 20.76C106.496 20.784 106.496 20.824 106.472 20.856L106.344 21.096C106.168 21.608 105.864 22.152 105.48 22.68L106.184 23.544ZM118.725 23.056L119.013 22.928C119.301 22.936 119.725 22.984 119.909 23.048C119.965 23.064 120.013 23.112 120.013 23.184C120.013 23.32 119.917 23.44 119.845 23.472C119.629 23.448 119.157 23.432 118.917 23.432C118.645 23.432 117.637 23.44 116.629 23.456V25.192C116.629 25.616 116.549 26.4 116.445 26.824H116.109C116.085 26.472 116.061 25.744 116.061 25.376V23.464C115.205 23.472 114.445 23.488 114.269 23.496C114.069 23.512 113.661 23.592 113.469 23.656C113.181 23.56 112.885 23.4 112.685 23.232C112.661 23.216 112.653 23.192 112.661 23.16L112.717 23.048C112.981 23.096 113.357 23.128 113.605 23.136C113.957 23.144 116.205 23.112 117.621 23.088C117.797 22.272 117.917 21.12 117.933 20.36C117.269 20.36 115.533 20.392 115.141 20.416C114.941 20.424 114.573 20.488 114.381 20.552C114.133 20.464 113.869 20.312 113.685 20.16C113.661 20.128 113.653 20.112 113.661 20.08L113.717 19.984C113.957 20.032 114.269 20.056 114.501 20.056C114.925 20.056 117.325 20.032 117.925 20.008L118.229 19.864C118.269 19.84 118.325 19.84 118.365 19.864C118.461 19.904 118.637 20.016 118.701 20.064C118.741 20.088 118.741 20.128 118.725 20.168L118.605 20.424C118.549 21.184 118.293 22.288 117.965 23.08C118.333 23.072 118.605 23.064 118.725 23.056ZM126.452 23.136L126.74 23.008C127.028 23.024 127.452 23.072 127.636 23.128C127.692 23.152 127.74 23.192 127.74 23.264C127.74 23.4 127.644 23.52 127.572 23.56C127.356 23.536 126.884 23.52 126.644 23.52C126.084 23.512 122.42 23.552 121.996 23.584C121.796 23.6 121.388 23.672 121.196 23.736C120.908 23.648 120.612 23.48 120.412 23.32C120.388 23.296 120.38 23.272 120.388 23.248L120.444 23.128C120.708 23.184 121.084 23.216 121.332 23.216C121.572 23.216 122.668 23.208 123.796 23.192V22.192L122.724 22.208C122.204 22.216 122.004 22.008 122.004 21.584V20.256C121.884 20.16 121.7 20.072 121.5 20.024L121.548 19.848C121.556 19.816 121.58 19.8 121.628 19.8C121.86 19.8 122.388 19.824 122.604 19.872C123.204 19.88 124.82 19.856 125.252 19.832L125.492 19.712C125.708 19.712 126.052 19.728 126.228 19.76C126.292 19.768 126.332 19.816 126.332 19.872C126.332 19.992 126.292 20.096 126.26 20.136C126.22 20.168 126.188 20.176 126.132 20.176L122.588 20.216V21.68C122.588 21.824 122.636 21.872 122.772 21.872C123.308 21.88 124.868 21.856 125.348 21.824L125.58 21.704C125.812 21.696 126.172 21.728 126.332 21.752C126.388 21.768 126.428 21.8 126.428 21.864C126.428 21.984 126.388 22.08 126.356 22.112C126.332 22.136 126.292 22.144 126.252 22.144L124.356 22.176V23.184C125.324 23.168 126.212 23.152 126.452 23.136ZM125.54 24.352L125.772 24.248C125.796 24.232 125.852 24.232 125.892 24.248C125.98 24.288 126.14 24.392 126.196 24.44C126.228 24.464 126.228 24.488 126.212 24.528L126.116 24.776L126.1 25.76C126.1 26.104 126.028 26.632 125.94 26.936H125.588C125.548 26.664 125.532 26.184 125.532 25.904V24.736C124.932 24.728 123.324 24.744 122.988 24.768C122.804 24.776 122.452 24.832 122.284 24.896C122.036 24.808 121.772 24.672 121.588 24.528C121.564 24.504 121.556 24.48 121.564 24.448L121.62 24.344C121.86 24.384 122.18 24.408 122.404 24.408C122.796 24.408 125.012 24.376 125.54 24.352ZM133.985 23.224L134.377 23.424C134.513 23.616 134.689 23.904 134.761 24.072C134.809 24.184 134.817 24.264 134.793 24.32C134.745 24.416 134.593 24.472 134.505 24.432C134.457 24.416 134.377 24.336 134.321 24.272L132.745 22.488C132.249 23.272 131.553 24.024 130.681 24.664C130.649 24.68 130.625 24.68 130.593 24.664L130.497 24.584C130.481 24.56 130.481 24.544 130.513 24.504C131.657 23.408 132.497 22.024 132.761 20.864C132.689 20.712 132.481 20.528 132.273 20.416L132.369 20.248C132.385 20.224 132.409 20.208 132.457 20.216C132.737 20.272 133.193 20.432 133.353 20.544C133.417 20.576 133.449 20.632 133.449 20.696C133.449 20.752 133.441 20.824 133.433 20.872C133.337 21.288 133.177 21.72 132.945 22.144L133.985 23.224ZM135.177 19.408L135.241 19.216C135.249 19.192 135.265 19.176 135.329 19.176C135.617 19.184 136.121 19.288 136.353 19.384C136.425 19.408 136.449 19.464 136.449 19.544L136.425 19.968V25.192C136.425 25.656 136.353 26.408 136.233 26.864H135.905C135.881 26.528 135.857 25.744 135.857 25.392V19.816C135.721 19.648 135.465 19.504 135.177 19.408ZM145.718 26.192L145.974 26.048C146.214 26.048 146.574 26.072 146.726 26.112C146.79 26.12 146.83 26.16 146.83 26.216C146.83 26.368 146.782 26.464 146.742 26.504C146.718 26.536 146.686 26.544 146.638 26.544L143.198 26.56C142.678 26.56 142.502 26.376 142.502 25.936V24.856C142.374 24.752 142.15 24.672 141.934 24.616L141.974 24.44C141.982 24.408 142.006 24.392 142.062 24.392C142.318 24.392 142.774 24.424 142.974 24.472C143.054 24.488 143.094 24.536 143.094 24.624L143.086 24.976V26.008C143.086 26.152 143.142 26.216 143.278 26.216C143.798 26.224 145.246 26.216 145.718 26.192ZM143.974 23.16L144.134 23.2C144.166 23.208 144.19 23.232 144.19 23.272C144.19 23.368 144.158 23.464 144.126 23.496C143.55 23.496 141.934 23.512 141.358 23.52C141.326 23.68 141.278 23.784 141.214 23.848H140.902C140.862 23.72 140.838 23.52 140.838 23.376L140.79 20.712C140.686 20.608 140.494 20.512 140.294 20.464L140.35 20.272C140.358 20.256 140.382 20.232 140.438 20.232C140.686 20.232 141.11 20.28 141.31 20.336C141.374 20.352 141.39 20.392 141.39 20.456L141.382 20.792V21.44L143.502 21.416V20.368C143.406 20.248 143.222 20.136 143.022 20.056L143.086 19.872C143.102 19.84 143.118 19.832 143.174 19.832C143.422 19.848 143.822 19.928 144.014 20C144.078 20.032 144.102 20.072 144.094 20.136L144.078 20.456L144.07 20.888C144.23 20.904 144.398 20.912 144.55 20.912C144.798 20.912 145.342 20.896 145.702 20.872V19.816C145.566 19.648 145.31 19.504 145.03 19.408L145.086 19.216C145.102 19.192 145.118 19.176 145.182 19.176C145.47 19.184 145.966 19.288 146.198 19.384C146.27 19.408 146.294 19.464 146.294 19.544L146.27 19.96V23.368C146.27 23.928 146.198 24.552 146.086 24.952H145.75C145.718 24.624 145.702 23.928 145.702 23.568V22.752C145.438 22.752 145.07 22.76 144.91 22.776C144.758 22.792 144.558 22.84 144.414 22.888C144.278 22.832 144.158 22.768 144.046 22.696C144.03 22.864 144.006 23.032 143.974 23.16ZM145.702 22.408V21.216C145.446 21.216 145.102 21.224 144.958 21.24C144.814 21.248 144.614 21.296 144.462 21.352C144.318 21.296 144.19 21.224 144.07 21.144L144.054 22.424C144.198 22.44 144.358 22.448 144.494 22.448C144.75 22.448 145.334 22.432 145.702 22.408ZM143.502 21.76L141.382 21.792L141.374 23.168L143.502 23.144V21.76ZM152.764 19.408L152.82 19.216C152.828 19.192 152.852 19.176 152.916 19.176C153.204 19.184 153.7 19.288 153.932 19.384C153.996 19.408 154.028 19.464 154.028 19.544L154.004 19.96V22.592C154.004 23 153.932 23.632 153.82 23.992H153.484C153.452 23.704 153.436 23.088 153.436 22.784C153.116 22.768 152.62 22.776 152.412 22.792C152.252 22.808 152.044 22.856 151.9 22.904C151.676 22.824 151.468 22.704 151.308 22.584C151.284 22.56 151.276 22.536 151.292 22.504L151.332 22.424C151.532 22.456 151.78 22.472 151.988 22.472C152.284 22.472 153.012 22.456 153.436 22.432V21.248C153.116 21.24 152.668 21.248 152.476 21.272C152.324 21.288 152.116 21.328 151.964 21.384C151.82 21.328 151.676 21.256 151.556 21.176C150.908 22.32 149.66 23.472 148.212 24.208C148.18 24.232 148.148 24.232 148.132 24.216L148.044 24.12C148.02 24.096 148.012 24.072 148.036 24.056C149.54 23.048 150.676 21.712 151.188 20.488C150.764 20.488 149.724 20.504 149.508 20.528C149.364 20.536 149.076 20.592 148.932 20.64C148.724 20.576 148.492 20.44 148.332 20.312C148.308 20.288 148.3 20.264 148.308 20.232L148.364 20.144C148.564 20.176 148.844 20.192 149.036 20.192C149.332 20.192 150.86 20.168 151.244 20.144L151.5 20.008C151.54 19.992 151.596 19.992 151.636 20.008C151.724 20.048 151.908 20.152 151.98 20.192C152.012 20.216 152.012 20.256 151.996 20.288L151.86 20.528C151.812 20.664 151.756 20.792 151.684 20.928C151.812 20.936 151.94 20.944 152.052 20.944C152.332 20.944 153.012 20.928 153.436 20.904V19.816C153.3 19.648 153.044 19.504 152.764 19.408ZM152.284 23.864C153.276 23.864 153.988 24.432 153.988 25.304C153.988 26.2 153.276 26.8 152.284 26.8C151.292 26.8 150.572 26.2 150.572 25.304C150.572 24.432 151.292 23.864 152.284 23.864ZM152.284 26.352C152.932 26.352 153.396 25.968 153.396 25.304C153.396 24.632 152.932 24.24 152.284 24.24C151.636 24.24 151.164 24.632 151.164 25.304C151.164 25.968 151.636 26.352 152.284 26.352ZM160.817 20.584L161.081 20.456C161.121 20.44 161.177 20.44 161.217 20.456C161.305 20.496 161.497 20.592 161.577 20.64C161.601 20.664 161.601 20.704 161.585 20.744L161.441 20.968C161.025 22.4 159.585 24.016 157.825 25C157.801 25.024 157.777 25.024 157.753 25.008L157.657 24.92C157.633 24.896 157.625 24.88 157.657 24.848C159.177 23.72 160.297 22.248 160.769 20.936C160.305 20.936 159.257 20.952 159.033 20.976C158.873 20.984 158.585 21.04 158.433 21.096C158.217 21.016 157.985 20.888 157.817 20.76C157.793 20.736 157.793 20.712 157.793 20.688L157.849 20.584C158.057 20.624 158.345 20.64 158.537 20.64C158.841 20.64 160.377 20.608 160.817 20.584ZM163.881 22.632L164.137 22.48C164.369 22.472 164.697 22.488 164.841 22.52C164.905 22.536 164.953 22.592 164.953 22.648C164.961 22.792 164.913 22.904 164.857 22.936C164.825 22.968 164.761 22.976 164.705 22.976L163.313 23V25.192C163.313 25.656 163.241 26.408 163.129 26.864H162.793C162.769 26.528 162.745 25.744 162.745 25.392V19.816C162.609 19.648 162.353 19.504 162.065 19.408L162.129 19.216C162.137 19.192 162.153 19.176 162.217 19.176C162.505 19.184 163.009 19.288 163.241 19.384C163.313 19.408 163.337 19.464 163.337 19.544L163.313 19.968V22.656L163.881 22.632ZM171.272 22.952L171.56 22.832C171.848 22.84 172.272 22.888 172.456 22.952C172.512 22.968 172.56 23.016 172.56 23.08C172.56 23.216 172.464 23.344 172.392 23.376C172.176 23.352 171.704 23.336 171.464 23.336C170.904 23.328 167.24 23.376 166.816 23.4C166.616 23.416 166.208 23.496 166.016 23.56C165.728 23.464 165.432 23.304 165.232 23.136C165.208 23.12 165.2 23.096 165.208 23.064L165.264 22.952C165.528 23 165.904 23.032 166.152 23.032C166.64 23.04 170.712 22.992 171.272 22.952ZM168.872 24.08C169.912 24.08 170.664 24.632 170.664 25.44C170.664 26.28 169.912 26.856 168.872 26.856C167.832 26.856 167.08 26.28 167.08 25.44C167.08 24.632 167.832 24.08 168.872 24.08ZM168.872 26.432C169.568 26.432 170.064 26.064 170.064 25.44C170.064 24.824 169.568 24.44 168.872 24.44C168.176 24.44 167.68 24.824 167.68 25.44C167.68 26.064 168.176 26.432 168.872 26.432ZM166.848 21.456V20.144C166.728 20.04 166.528 19.96 166.32 19.912L166.36 19.736C166.368 19.704 166.392 19.688 166.44 19.688C166.696 19.688 167.144 19.712 167.336 19.76C167.416 19.776 167.456 19.824 167.456 19.912L167.44 20.272V21.536C167.44 21.696 167.488 21.744 167.648 21.752C168.224 21.76 169.792 21.736 170.272 21.712L170.52 21.568C170.752 21.568 171.112 21.592 171.264 21.632C171.328 21.64 171.368 21.68 171.368 21.736C171.368 21.88 171.328 21.976 171.288 22.016C171.264 22.04 171.224 22.048 171.184 22.048L167.552 22.096C167.064 22.104 166.848 21.88 166.848 21.456ZM179.335 22.264L179.591 22.112C179.823 22.104 180.151 22.12 180.295 22.152C180.359 22.168 180.407 22.224 180.407 22.288C180.415 22.432 180.367 22.536 180.311 22.568C180.279 22.6 180.215 22.608 180.159 22.608L178.767 22.632V23.416C178.767 23.984 178.695 24.6 178.583 25H178.247C178.215 24.68 178.199 23.984 178.199 23.616V19.816C178.063 19.648 177.807 19.504 177.527 19.408L177.591 19.216C177.599 19.192 177.615 19.176 177.679 19.176C177.967 19.184 178.463 19.288 178.695 19.384C178.767 19.408 178.791 19.464 178.791 19.544L178.767 19.96V22.288L179.335 22.264ZM178.295 26.248L178.551 26.112C178.791 26.104 179.151 26.136 179.303 26.168C179.367 26.176 179.407 26.216 179.407 26.28C179.407 26.424 179.359 26.528 179.319 26.56C179.295 26.592 179.263 26.6 179.223 26.6L175.839 26.624H175.831C175.311 26.616 175.127 26.44 175.127 26V25.184C174.999 25.08 174.783 25 174.567 24.952L174.607 24.776C174.615 24.736 174.639 24.728 174.687 24.728C174.951 24.728 175.407 24.752 175.607 24.8C175.687 24.816 175.727 24.864 175.727 24.952L175.711 25.304V26.064C175.711 26.216 175.767 26.272 175.911 26.272C176.415 26.28 177.831 26.272 178.295 26.248ZM177.023 22.888C177.023 23.68 176.287 24.208 175.375 24.208C174.463 24.208 173.727 23.68 173.727 22.888C173.727 22.096 174.463 21.576 175.375 21.576C176.287 21.576 177.023 22.096 177.023 22.888ZM174.287 22.888C174.287 23.472 174.783 23.808 175.375 23.808C175.975 23.808 176.471 23.472 176.471 22.888C176.471 22.296 175.975 21.952 175.375 21.952C174.783 21.952 174.287 22.296 174.287 22.888ZM176.615 20.856L176.863 20.736C177.095 20.744 177.439 20.784 177.583 20.832C177.639 20.856 177.671 20.896 177.671 20.936C177.671 21.072 177.567 21.192 177.511 21.232C177.351 21.208 176.967 21.2 176.783 21.2C176.463 21.2 174.471 21.24 174.167 21.264C174.015 21.272 173.719 21.328 173.583 21.376C173.359 21.296 173.111 21.144 172.943 21.016C172.919 20.992 172.911 20.96 172.919 20.944L172.975 20.848C173.191 20.888 173.511 20.904 173.695 20.904C174.031 20.912 176.247 20.88 176.615 20.856ZM174.119 19.744L174.175 19.68C174.887 19.808 175.599 19.824 176.159 19.832C176.223 19.832 176.255 19.856 176.271 19.904C176.303 19.984 176.287 20.136 176.247 20.2C176.223 20.24 176.183 20.248 176.143 20.248C175.727 20.256 175.119 20.264 174.767 20.296C174.695 20.296 174.663 20.296 174.615 20.264C174.455 20.176 174.263 19.992 174.127 19.816C174.111 19.792 174.111 19.768 174.119 19.744ZM186.628 23.128L185.052 21.688C184.564 22.424 183.852 23.128 182.972 23.696C182.94 23.728 182.916 23.728 182.884 23.704L182.804 23.624C182.78 23.6 182.78 23.576 182.82 23.544C183.9 22.616 184.7 21.432 184.996 20.408C184.924 20.264 184.732 20.08 184.54 19.976L184.628 19.808C184.644 19.776 184.676 19.768 184.724 19.776C184.996 19.832 185.428 19.992 185.588 20.096C185.652 20.128 185.684 20.184 185.684 20.248C185.684 20.312 185.668 20.384 185.66 20.424C185.572 20.736 185.436 21.056 185.26 21.368L186.276 22.216L186.62 22.336C186.756 22.504 186.94 22.752 187.02 22.896C187.076 23 187.092 23.072 187.076 23.12C187.044 23.216 186.9 23.28 186.812 23.248C186.764 23.24 186.676 23.184 186.628 23.128ZM186.868 26.32C187.5 26.32 187.972 25.928 187.972 25.272C187.972 24.632 187.5 24.232 186.868 24.232C186.228 24.232 185.764 24.632 185.764 25.272C185.764 25.928 186.228 26.32 186.868 26.32ZM186.868 23.832C187.852 23.832 188.58 24.424 188.58 25.272C188.58 26.168 187.852 26.784 186.868 26.784C185.876 26.784 185.156 26.168 185.156 25.272C185.156 24.424 185.876 23.832 186.868 23.832ZM189.124 21.8L189.38 21.656C189.612 21.648 189.94 21.664 190.084 21.696C190.148 21.712 190.196 21.768 190.196 21.824C190.204 21.968 190.156 22.072 190.1 22.112C190.068 22.136 190.004 22.152 189.948 22.152L188.58 22.176V22.44C188.58 22.952 188.5 23.552 188.396 23.928H188.052C188.02 23.616 188.012 22.976 188.012 22.624V19.816C187.868 19.648 187.62 19.504 187.332 19.408L187.396 19.216C187.404 19.192 187.428 19.176 187.484 19.176C187.78 19.184 188.276 19.288 188.5 19.384C188.572 19.408 188.596 19.464 188.596 19.544L188.58 19.96V21.824L189.124 21.8ZM196.514 22.992L196.802 22.864C197.09 22.872 197.514 22.928 197.698 22.984C197.754 23.008 197.802 23.048 197.802 23.12C197.802 23.256 197.706 23.376 197.634 23.416C197.418 23.392 196.946 23.376 196.706 23.376C196.434 23.376 195.442 23.376 194.434 23.392V23.592C194.434 23.832 194.402 24.16 194.338 24.408C194.77 24.4 195.186 24.392 195.458 24.384L195.714 24.264C195.754 24.24 195.81 24.24 195.842 24.264C195.938 24.304 196.106 24.384 196.178 24.432C196.202 24.448 196.202 24.48 196.194 24.52L196.106 24.8C196.082 25.24 196.026 25.736 195.938 26.184L196.082 26.24C196.122 26.264 196.138 26.296 196.138 26.336C196.138 26.448 196.09 26.552 196.042 26.592L192.874 26.632C192.858 26.712 192.826 26.784 192.786 26.84H192.466C192.426 26.736 192.394 26.592 192.386 26.456L192.25 24.784C192.17 24.696 192.01 24.6 191.85 24.536L191.89 24.384C191.898 24.36 191.914 24.344 191.962 24.344C192.202 24.344 192.626 24.384 192.858 24.432C193.114 24.432 193.49 24.424 193.89 24.416C193.874 24.192 193.866 23.92 193.866 23.72V23.4C193.002 23.408 192.242 23.424 192.058 23.44C191.858 23.456 191.45 23.528 191.258 23.592C190.97 23.504 190.674 23.336 190.474 23.168C190.45 23.152 190.442 23.128 190.45 23.104L190.506 22.984C190.77 23.04 191.146 23.072 191.394 23.072C191.882 23.08 195.954 23.024 196.514 22.992ZM195.474 26.176L195.498 24.76C194.674 24.752 193.674 24.768 192.866 24.792L192.898 26.264C193.586 26.272 194.77 26.256 195.322 26.224L195.474 26.176ZM191.482 21.976L191.53 21.88C191.77 21.92 192.114 21.952 192.306 21.952L192.858 21.944L192.762 20.872C192.69 20.76 192.546 20.656 192.386 20.584L192.45 20.432C192.458 20.4 192.482 20.392 192.538 20.392C192.762 20.416 193.066 20.496 193.242 20.568C193.306 20.592 193.322 20.64 193.314 20.696L193.298 20.952L193.354 21.944L194.954 21.92L195.002 20.712C194.922 20.624 194.778 20.536 194.618 20.488L194.666 20.32C194.674 20.296 194.69 20.28 194.754 20.28C194.978 20.288 195.314 20.344 195.49 20.4C195.554 20.424 195.578 20.456 195.57 20.528L195.546 20.768L195.45 21.904C195.546 21.904 195.618 21.896 195.666 21.896L195.906 21.776C196.13 21.784 196.458 21.84 196.61 21.888C196.658 21.904 196.69 21.944 196.69 21.984C196.69 22.12 196.602 22.232 196.538 22.264C196.394 22.248 196.01 22.24 195.834 22.24C195.474 22.24 193.146 22.272 192.802 22.296C192.642 22.304 192.33 22.36 192.178 22.416C191.954 22.336 191.674 22.184 191.506 22.04C191.482 22.024 191.474 22 191.482 21.976ZM195.69 19.736L195.962 19.608C196.194 19.616 196.562 19.664 196.714 19.72C196.762 19.736 196.802 19.776 196.802 19.816C196.802 19.952 196.714 20.072 196.658 20.104C196.498 20.08 196.058 20.072 195.874 20.072C195.482 20.072 193.09 20.096 192.722 20.12C192.562 20.128 192.25 20.192 192.098 20.248C191.858 20.168 191.586 20.016 191.402 19.88C191.378 19.856 191.378 19.832 191.386 19.816L191.434 19.712C191.674 19.76 192.026 19.784 192.218 19.784C192.594 19.784 195.266 19.76 195.69 19.736ZM204.289 26.2L204.441 26.256C204.481 26.272 204.505 26.296 204.505 26.336C204.505 26.432 204.465 26.52 204.433 26.56C203.761 26.56 201.921 26.576 201.217 26.576C201.185 26.688 201.137 26.768 201.089 26.816H200.785C200.745 26.696 200.721 26.512 200.721 26.384L200.673 24.32C200.569 24.224 200.369 24.12 200.177 24.072L200.233 23.888C200.241 23.872 200.265 23.848 200.329 23.848C200.577 23.848 200.993 23.896 201.193 23.952C201.249 23.968 201.273 24.008 201.273 24.072L201.265 24.4L201.257 24.848L203.793 24.824V24.016C203.673 23.912 203.473 23.808 203.265 23.736L203.329 23.536C203.337 23.512 203.361 23.504 203.417 23.504C203.681 23.52 204.105 23.592 204.305 23.672C204.369 23.704 204.393 23.736 204.385 23.8L204.361 24.112V25.504C204.361 25.728 204.329 26.008 204.289 26.2ZM203.793 25.176L201.257 25.2L201.241 26.216L203.793 26.2V25.176ZM202.257 21.536C202.257 22.448 201.513 23.104 200.505 23.104C199.481 23.104 198.737 22.448 198.737 21.536C198.737 20.624 199.481 19.968 200.505 19.968C201.513 19.968 202.257 20.624 202.257 21.536ZM199.329 21.536C199.329 22.232 199.825 22.664 200.505 22.664C201.177 22.664 201.681 22.232 201.681 21.536C201.681 20.832 201.177 20.392 200.505 20.392C199.825 20.392 199.329 20.832 199.329 21.536ZM203.857 22.192V19.816C203.713 19.648 203.465 19.504 203.177 19.408L203.241 19.216C203.249 19.192 203.273 19.176 203.337 19.176C203.625 19.184 204.121 19.288 204.353 19.384C204.417 19.408 204.449 19.464 204.441 19.544L204.425 19.96V22.016C204.425 22.496 204.353 23.024 204.241 23.336H203.905C203.865 23.072 203.857 22.496 203.857 22.192ZM210.895 19.408L210.959 19.216C210.967 19.192 210.983 19.176 211.047 19.176C211.343 19.184 211.847 19.288 212.071 19.384C212.143 19.408 212.175 19.464 212.167 19.544L212.151 19.968V25.192C212.151 25.656 212.079 26.408 211.959 26.864H211.623C211.599 26.528 211.583 25.744 211.583 25.392V23.8C210.431 24.184 208.887 24.472 207.831 24.56C207.735 24.568 207.647 24.568 207.567 24.568C207.303 24.568 207.127 24.416 207.039 24.168C207.015 24.096 207.007 23.968 207.007 23.808V21.136C206.863 21.04 206.631 20.944 206.407 20.888L206.447 20.696C206.455 20.664 206.471 20.648 206.527 20.648C206.807 20.648 207.279 20.672 207.479 20.72C207.559 20.736 207.599 20.784 207.599 20.872L207.583 21.256V23.92C207.583 24.024 207.623 24.064 207.727 24.064C208.751 24.04 210.471 23.8 211.583 23.48V19.816C211.439 19.648 211.183 19.504 210.895 19.408ZM220.03 22.528L220.286 22.384C220.518 22.376 220.846 22.392 220.99 22.424C221.054 22.44 221.102 22.496 221.102 22.552C221.11 22.696 221.062 22.8 221.006 22.84C220.974 22.864 220.91 22.88 220.854 22.88L219.462 22.904V25.192C219.462 25.656 219.39 26.408 219.278 26.864H218.942C218.918 26.528 218.894 25.744 218.894 25.392V23.936C217.766 24.304 216.27 24.584 215.246 24.664C215.142 24.672 215.054 24.672 214.982 24.672C214.71 24.672 214.534 24.52 214.454 24.272C214.43 24.2 214.414 24.072 214.414 23.912V21.088C214.294 20.976 214.094 20.888 213.886 20.848L213.926 20.664C213.934 20.64 213.958 20.624 214.006 20.624C214.23 20.624 214.734 20.656 214.982 20.696C215.334 20.696 216.43 20.656 216.71 20.632L216.926 20.504C217.118 20.504 217.438 20.52 217.59 20.56C217.662 20.568 217.694 20.608 217.694 20.664C217.694 20.792 217.654 20.896 217.622 20.936C217.598 20.96 217.558 20.976 217.518 20.976L215.006 21.056V24.024C215.006 24.128 215.038 24.168 215.142 24.16C216.142 24.144 217.814 23.928 218.894 23.616V19.816C218.758 19.648 218.502 19.504 218.214 19.408L218.278 19.216C218.286 19.192 218.302 19.176 218.366 19.176C218.654 19.184 219.158 19.288 219.39 19.384C219.462 19.408 219.486 19.464 219.486 19.544L219.462 19.968V22.552L220.03 22.528ZM222.452 26.104C222.148 26.104 221.924 25.864 221.924 25.576C221.924 25.28 222.148 25.032 222.452 25.032C222.756 25.032 222.98 25.28 222.98 25.576C222.98 25.864 222.756 26.104 222.452 26.104Z" fill="white"/>
</svg>
