<svg width="25" height="25" viewBox="0 0 25 25" fill="none" xmlns="http://www.w3.org/2000/svg">
<path d="M12.5 24C15.55 24 18.4751 22.7884 20.6317 20.6317C22.7884 18.4751 24 15.55 24 12.5C24 9.45001 22.7884 6.52494 20.6317 4.36827C18.4751 2.2116 15.55 1 12.5 1C9.45001 1 6.52494 2.2116 4.36827 4.36827C2.2116 6.52494 1 9.45001 1 12.5C1 15.55 2.2116 18.4751 4.36827 20.6317C6.52494 22.7884 9.45001 24 12.5 24Z" stroke="#191919" stroke-width="1.5" stroke-linecap="round" stroke-linejoin="round"/>
<path d="M14.9179 10.1823C15.1956 9.73118 15.8025 9.44279 16.3934 9.44279C16.9843 9.44279 17.5929 9.73118 17.8707 10.1806M10.0808 10.1823C9.80301 9.73118 9.19616 9.44279 8.60524 9.44279C8.01431 9.44279 7.4057 9.73118 7.12793 10.1806M7.51008 15.3909C7.50121 15.724 7.55915 16.0555 7.68048 16.3658C7.80182 16.6761 7.98408 16.959 8.21652 17.1977C8.44896 17.4364 8.72687 17.6261 9.03384 17.7557C9.34081 17.8852 9.67063 17.952 10.0038 17.952C10.337 17.952 10.6668 17.8852 10.9738 17.7557C11.2808 17.6261 11.5587 17.4364 11.7911 17.1977C12.0235 16.959 12.2058 16.6761 12.3271 16.3658C12.4485 16.0555 12.5064 15.724 12.4975 15.3909C12.4975 16.0526 12.7604 16.6871 13.2282 17.1549C13.696 17.6227 14.3305 17.8856 14.9922 17.8856C15.6538 17.8856 16.2883 17.6227 16.7561 17.1549C17.224 16.6871 17.4868 16.0526 17.4868 15.3909" stroke="#191919" stroke-width="1.5" stroke-linecap="round" stroke-linejoin="round"/>
</svg>
