<svg width="21" height="19" viewBox="0 0 21 19" fill="none" xmlns="http://www.w3.org/2000/svg">
<path d="M20.9711 9.59774L19.432 1.24017C19.3944 1.03645 19.316 0.842684 19.2018 0.670777C19.0875 0.49887 18.9397 0.352462 18.7676 0.240555C18.5954 0.128648 18.4025 0.0536087 18.2006 0.0200513C17.9987 -0.0135062 17.7922 -0.00487224 17.5938 0.0454221L17.5647 0.0539696L12.6417 1.52509H8.35795L3.43491 0.0587182L3.40585 0.0501707C3.20741 -0.0001237 3.00091 -0.00875762 2.79906 0.0247998C2.5972 0.0583572 2.40425 0.133397 2.23208 0.245304C2.05991 0.35721 1.91215 0.503619 1.79789 0.675526C1.68363 0.847432 1.60529 1.0412 1.56768 1.24492L0.0285269 9.59774C-0.0372919 9.93226 0.0115646 10.2795 0.167015 10.5821C0.322466 10.8847 0.575196 11.1244 0.883403 11.2617C1.08082 11.3533 1.29524 11.4012 1.51237 11.4022C1.77227 11.402 2.02734 11.3312 2.25102 11.1971V15.2011C2.25102 16.2086 2.64605 17.1749 3.34921 17.8873C4.05237 18.5998 5.00606 19 6.00048 19H14.9992C15.9936 19 16.9473 18.5998 17.6504 17.8873C18.3536 17.1749 18.7486 16.2086 18.7486 15.2011V11.198C18.972 11.3319 19.2268 11.4028 19.4863 11.4032C19.7037 11.4026 19.9185 11.355 20.1163 11.2636C20.4248 11.1262 20.6778 10.8862 20.8333 10.5832C20.9888 10.2802 21.0374 9.93255 20.9711 9.59774ZM1.50113 9.88266L3.04122 1.52509L6.98471 2.6999L1.50113 9.88266ZM14.9992 17.4804H11.2497V16.2752L12.5302 14.9789C12.6709 14.8363 12.7499 14.6429 12.7499 14.4413C12.7499 14.2397 12.6709 14.0463 12.5302 13.9038C12.3894 13.7612 12.1986 13.6811 11.9996 13.6811C11.8006 13.6811 11.6098 13.7612 11.4691 13.9038L10.4998 14.8867L9.53059 13.9038C9.38988 13.7612 9.19904 13.6811 9.00004 13.6811C8.80105 13.6811 8.6102 13.7612 8.46949 13.9038C8.32878 14.0463 8.24973 14.2397 8.24973 14.4413C8.24973 14.6429 8.32878 14.8363 8.46949 14.9789L9.74994 16.2752V17.4804H6.00048C5.40383 17.4804 4.83161 17.2403 4.40972 16.8128C3.98782 16.3854 3.7508 15.8056 3.7508 15.2011V9.41824L8.6176 3.04465H12.3811L17.2489 9.41824V15.2011C17.2489 15.8056 17.0118 16.3854 16.5899 16.8128C16.168 17.2403 15.5958 17.4804 14.9992 17.4804ZM19.4985 9.88266L14.0149 2.6999L17.9584 1.52509L19.4985 9.88266ZM8.25015 11.0223C8.25015 11.2477 8.18418 11.4681 8.06058 11.6555C7.93698 11.8429 7.76131 11.989 7.55577 12.0752C7.35023 12.1615 7.12407 12.1841 6.90587 12.1401C6.68767 12.0961 6.48725 11.9876 6.32993 11.8282C6.17262 11.6688 6.06549 11.4657 6.02209 11.2447C5.97869 11.0236 6.00096 10.7944 6.0861 10.5862C6.17124 10.3779 6.31541 10.2 6.50039 10.0747C6.68537 9.9495 6.90284 9.88266 7.12531 9.88266C7.42364 9.88266 7.70975 10.0027 7.92069 10.2165C8.13164 10.4302 8.25015 10.7201 8.25015 11.0223ZM14.9992 11.0223C14.9992 11.2477 14.9332 11.4681 14.8096 11.6555C14.686 11.8429 14.5103 11.989 14.3048 12.0752C14.0993 12.1615 13.8731 12.1841 13.6549 12.1401C13.4367 12.0961 13.2363 11.9876 13.079 11.8282C12.9216 11.6688 12.8145 11.4657 12.7711 11.2447C12.7277 11.0236 12.75 10.7944 12.8351 10.5862C12.9203 10.3779 13.0644 10.2 13.2494 10.0747C13.4344 9.9495 13.6519 9.88266 13.8743 9.88266C14.1727 9.88266 14.4588 10.0027 14.6697 10.2165C14.8807 10.4302 14.9992 10.7201 14.9992 11.0223Z" fill="#191919"/>
</svg>
