<svg width="23" height="21" viewBox="0 0 23 21" fill="none" xmlns="http://www.w3.org/2000/svg">
<path d="M11.5 3.66195L10.9223 4.21823C10.9972 4.29588 11.0869 4.35765 11.1862 4.39983C11.2854 4.44202 11.3922 4.46376 11.5 4.46376C11.6078 4.46376 11.7146 4.44202 11.8138 4.39983C11.9131 4.35765 12.0028 4.29588 12.0777 4.21823L11.5 3.66195ZM6.15223 15.3438C5.98768 15.2085 5.7761 15.1441 5.56404 15.1647C5.35198 15.1854 5.15682 15.2894 5.02149 15.454C4.88615 15.6186 4.82173 15.8301 4.8424 16.0422C4.86306 16.2542 4.96712 16.4494 5.13167 16.5847L6.15223 15.3438ZM1.16819 12.1249C1.21876 12.2173 1.28705 12.2989 1.36915 12.3649C1.45124 12.431 1.54555 12.4802 1.64667 12.5098C1.7478 12.5394 1.85376 12.5488 1.95852 12.5375C2.06328 12.5261 2.16477 12.4942 2.25721 12.4437C2.34965 12.3931 2.43122 12.3248 2.49727 12.2427C2.56332 12.1606 2.61255 12.0663 2.64215 11.9652C2.67175 11.8641 2.68115 11.7581 2.6698 11.6533C2.65845 11.5486 2.62657 11.4471 2.576 11.3546L1.16819 12.1249ZM1.60465 7.55269C1.60465 5.25269 2.90442 3.32283 4.67916 2.51088C6.40363 1.72246 8.72074 1.93107 10.9223 4.21823L12.0777 3.10674C9.46744 0.392741 6.43358 -0.0554914 4.01163 1.05172C1.64316 2.13539 0 4.65149 0 7.55269H1.60465ZM7.7526 18.6387C8.3014 19.0709 8.88977 19.5309 9.48563 19.8796C10.0815 20.2273 10.7619 20.5108 11.5 20.5108V18.9061C11.1684 18.9061 10.779 18.7778 10.2954 18.4943C9.81084 18.2119 9.30912 17.8225 8.74642 17.3785L7.7526 18.6387ZM15.2474 18.6387C16.7729 17.4352 18.7241 16.0573 20.2539 14.334C21.8126 12.5795 23 10.4047 23 7.55269H21.3953C21.3953 9.90404 20.4326 11.7152 19.0547 13.2685C17.648 14.8517 15.8753 16.1001 14.2536 17.3785L15.2474 18.6387ZM23 7.55269C23 4.65149 21.3579 2.13539 18.9884 1.05172C16.5664 -0.0554914 13.5347 0.392741 10.9223 3.10567L12.0777 4.21823C14.2793 1.93214 16.5964 1.72246 18.3208 2.51088C20.0956 3.32283 21.3953 5.25163 21.3953 7.55269H23ZM14.2536 17.3785C13.6909 17.8225 13.1892 18.2119 12.7046 18.4943C12.221 18.7767 11.8316 18.9061 11.5 18.9061V20.5108C12.2381 20.5108 12.9185 20.2273 13.5144 19.8796C14.1113 19.5309 14.6986 19.0709 15.2474 18.6387L14.2536 17.3785ZM8.74642 17.3785C7.89488 16.7078 7.02944 16.0659 6.15223 15.3438L5.13167 16.5847C6.01958 17.3154 6.95884 18.0129 7.7526 18.6387L8.74642 17.3785ZM2.576 11.3557C1.93158 10.1923 1.59709 8.88267 1.60465 7.55269H0C0 9.30497 0.449302 10.8101 1.16819 12.1249L2.576 11.3557Z" fill="#191919"/>
</svg>
