<svg width="23" height="23" viewBox="0 0 23 23" fill="none" xmlns="http://www.w3.org/2000/svg">
<path d="M7.51923 12.8269C7.25679 12.8269 7.00025 12.7491 6.78204 12.6033C6.56382 12.4575 6.39375 12.2503 6.29332 12.0078C6.19289 11.7653 6.16661 11.4985 6.21781 11.2411C6.26901 10.9837 6.39538 10.7473 6.58096 10.5617C6.76653 10.3761 7.00297 10.2498 7.26036 10.1986C7.51776 10.1474 7.78456 10.1736 8.02703 10.2741C8.26949 10.3745 8.47673 10.5446 8.62253 10.7628C8.76833 10.981 8.84616 11.2376 8.84616 11.5C8.84616 11.8519 8.70636 12.1894 8.45751 12.4383C8.20866 12.6871 7.87116 12.8269 7.51923 12.8269ZM15.4808 10.1731C15.2183 10.1731 14.9618 10.2509 14.7436 10.3967C14.5254 10.5425 14.3553 10.7497 14.2549 10.9922C14.1544 11.2347 14.1281 11.5015 14.1793 11.7589C14.2305 12.0163 14.3569 12.2527 14.5425 12.4383C14.7281 12.6238 14.9645 12.7502 15.2219 12.8014C15.4793 12.8526 15.7461 12.8263 15.9886 12.7259C16.231 12.6255 16.4383 12.4554 16.5841 12.2372C16.7299 12.019 16.8077 11.7624 16.8077 11.5C16.8077 11.1481 16.6679 10.8106 16.419 10.5617C16.1702 10.3129 15.8327 10.1731 15.4808 10.1731ZM14.124 15.1745C13.3361 15.6635 12.4273 15.9226 11.5 15.9226C10.5727 15.9226 9.66389 15.6635 8.87601 15.1745C8.67747 15.0492 8.43731 15.008 8.20837 15.0599C7.97944 15.1117 7.78047 15.2524 7.65524 15.4509C7.53002 15.6495 7.48879 15.8896 7.54064 16.1185C7.59248 16.3475 7.73314 16.5465 7.93169 16.6717C9.00223 17.339 10.2385 17.6928 11.5 17.6928C12.7615 17.6928 13.9978 17.339 15.0683 16.6717C15.2669 16.5465 15.4075 16.3475 15.4594 16.1185C15.5112 15.8896 15.47 15.6495 15.3448 15.4509C15.2195 15.2524 15.0206 15.1117 14.7916 15.0599C14.5627 15.008 14.3225 15.0492 14.124 15.1745ZM23 11.5C23 13.7745 22.3255 15.9979 21.0619 17.8891C19.7983 19.7802 18.0022 21.2542 15.9009 22.1246C13.7995 22.995 11.4872 23.2228 9.25646 22.779C7.02568 22.3353 4.97658 21.24 3.36828 19.6317C1.75997 18.0234 0.664704 15.9743 0.220974 13.7435C-0.222756 11.5128 0.00498277 9.20049 0.87539 7.09914C1.7458 4.99779 3.21978 3.20174 5.11095 1.9381C7.00211 0.674463 9.22552 0 11.5 0C14.549 0.0032198 17.4722 1.21586 19.6282 3.37183C21.7841 5.5278 22.9968 8.451 23 11.5ZM21.2308 11.5C21.2277 8.99504 20.2599 6.58751 18.5284 4.77734C16.7969 2.96718 14.4347 1.89347 11.9324 1.77918C10.6508 3.58048 10.6154 5.29442 10.6154 5.30769C10.6154 5.54231 10.7086 5.76731 10.8745 5.93321C11.0404 6.09911 11.2654 6.19231 11.5 6.19231C11.7346 6.19231 11.9596 6.09911 12.1255 5.93321C12.2914 5.76731 12.3846 5.54231 12.3846 5.30769C12.3846 5.07308 12.4778 4.84807 12.6437 4.68217C12.8096 4.51628 13.0346 4.42308 13.2692 4.42308C13.5038 4.42308 13.7289 4.51628 13.8948 4.68217C14.0606 4.84807 14.1538 5.07308 14.1538 5.30769C14.1538 6.01153 13.8742 6.68655 13.3766 7.18424C12.8789 7.68194 12.2038 7.96154 11.5 7.96154C10.7962 7.96154 10.1211 7.68194 9.62345 7.18424C9.12576 6.68655 8.84616 6.01153 8.84616 5.30769C8.84616 5.22697 8.86053 3.72644 9.78164 1.92072C7.95972 2.24759 6.26883 3.08733 4.90738 4.34138C3.54593 5.59544 2.5704 7.2118 2.09527 9.00078C1.62014 10.7898 1.66512 12.6772 2.22492 14.4415C2.78473 16.2058 3.83614 17.7739 5.25578 18.9616C6.67542 20.1494 8.40439 20.9077 10.2398 21.1474C12.0752 21.3871 13.9409 21.0983 15.618 20.315C17.2951 19.5317 18.714 18.2863 19.7081 16.7249C20.7023 15.1635 21.2305 13.351 21.2308 11.5Z" fill="#191919"/>
</svg>
