<svg width="27" height="21" viewBox="0 0 27 21" fill="none" xmlns="http://www.w3.org/2000/svg">
<path d="M22.3752 8.2C23.7639 9.8425 23.4752 11.8525 23.4752 13.625C23.4752 18.5075 16.8914 19.875 13.5002 19.875C10.1089 19.875 3.52515 18.5075 3.52515 13.625C3.52515 11.8525 3.2364 9.8425 4.62515 8.2M22.3752 8.2C22.1314 7.9125 21.8377 7.6375 21.4802 7.375M22.3752 8.2C23.2502 8.70375 23.4739 6.81875 23.4752 6.2025V3.86C23.4752 1.82875 22.0789 1.125 20.8814 1.125C19.6852 1.125 17.2902 3.07875 16.4927 3.07875C15.5352 3.07875 15.3502 2.8825 13.5002 2.8825C11.6502 2.8825 11.4652 3.07875 10.5077 3.07875C9.71015 3.07875 7.31515 1.125 6.1189 1.125C4.9214 1.125 3.52515 1.82875 3.52515 3.86V6.20375C3.52765 6.81875 3.75015 8.70375 4.62515 8.2M4.62515 8.2C4.8689 7.9125 5.16265 7.6375 5.52015 7.375" stroke="#191919" stroke-width="1.5" stroke-linecap="round"/>
<path d="M14.5325 14.875C14.5325 15.0913 14.0813 15.2663 13.5238 15.2663C12.9675 15.2663 12.5163 15.0913 12.5163 14.875C12.5163 14.6588 12.9675 14.485 13.5238 14.485C14.0813 14.485 14.5325 14.66 14.5325 14.875ZM17.875 11.8675C17.875 12.4063 17.6038 12.8438 17.27 12.8438C16.9363 12.8438 16.665 12.4063 16.665 11.8675C16.665 11.3275 16.9363 10.8913 17.27 10.8913C17.6038 10.8913 17.875 11.33 17.875 11.8675ZM10.375 11.8675C10.375 12.4063 10.1038 12.8438 9.77004 12.8438C9.43629 12.8438 9.16504 12.4063 9.16504 11.8675C9.16504 11.3275 9.43629 10.8913 9.77004 10.8913C10.1038 10.8913 10.375 11.33 10.375 11.8675Z" stroke="#191919" stroke-width="1.5"/>
<path d="M26 14.2112C25.3962 13.82 22.775 12.8438 21.7663 12.8438M23.9837 17.3362C23.3787 16.945 21.9675 15.9687 20.9587 15.9687M1 14.2112C1.605 13.82 4.225 12.8438 5.23375 12.8438M3.01625 17.3362C3.62125 16.945 5.0325 15.9687 6.04125 15.9687" stroke="#191919" stroke-width="1.5" stroke-linecap="round"/>
</svg>
