<svg width="23" height="23" viewBox="0 0 23 23" fill="none" xmlns="http://www.w3.org/2000/svg">
<path d="M5.75 9.16406C5.75 9.49085 5.87981 9.80425 6.11089 10.0353C6.34196 10.2664 6.65536 10.3962 6.98214 10.3962C7.30893 10.3962 7.62233 10.2664 7.8534 10.0353C8.08447 9.80425 8.21429 9.49085 8.21429 9.16406C8.21429 8.83728 8.08447 8.52388 7.8534 8.29281C7.62233 8.06173 7.30893 7.93192 6.98214 7.93192C6.65536 7.93192 6.34196 8.06173 6.11089 8.29281C5.87981 8.52388 5.75 8.83728 5.75 9.16406ZM14.7857 9.16406C14.7857 9.49085 14.9155 9.80425 15.1466 10.0353C15.3777 10.2664 15.6911 10.3962 16.0179 10.3962C16.3446 10.3962 16.658 10.2664 16.8891 10.0353C17.1202 9.80425 17.25 9.49085 17.25 9.16406C17.25 8.83728 17.1202 8.52388 16.8891 8.29281C16.658 8.06173 16.3446 7.93192 16.0179 7.93192C15.6911 7.93192 15.3777 8.06173 15.1466 8.29281C14.9155 8.52388 14.7857 8.83728 14.7857 9.16406ZM11.5 0C5.14933 0 0 5.14933 0 11.5C0 17.8507 5.14933 23 11.5 23C17.8507 23 23 17.8507 23 11.5C23 5.14933 17.8507 0 11.5 0ZM18.2511 18.2511C17.3732 19.129 16.3516 19.817 15.2144 20.2996C14.0413 20.7975 12.7912 21.0491 11.5 21.0491C10.2088 21.0491 8.95871 20.7975 7.78304 20.2996C6.64759 19.82 5.61622 19.1243 4.74632 18.2511C3.86842 17.3732 3.18047 16.3516 2.69788 15.2144C2.20246 14.0413 1.95089 12.7912 1.95089 11.5C1.95089 10.2088 2.20246 8.95871 2.70045 7.78304C3.17998 6.64759 3.8757 5.61622 4.74888 4.74632C5.62679 3.86842 6.64844 3.18047 7.7856 2.69788C8.9587 2.20246 10.2088 1.95089 11.5 1.95089C12.7912 1.95089 14.0413 2.20246 15.217 2.70045C16.3524 3.17998 17.3838 3.8757 18.2537 4.74888C19.1316 5.62679 19.8195 6.64844 20.3021 7.7856C20.7975 8.9587 21.0491 10.2088 21.0491 11.5C21.0491 12.7912 20.7975 14.0413 20.2996 15.217C19.8206 16.352 19.1248 17.3826 18.2511 18.2511ZM15.4018 12.0391H14.1671C14.0593 12.0391 13.9669 12.1212 13.9592 12.229C13.8616 13.4997 12.7963 14.5033 11.5 14.5033C10.2037 14.5033 9.13583 13.4997 9.04085 12.229C9.03315 12.1212 8.94074 12.0391 8.83292 12.0391H7.59821C7.57036 12.039 7.54279 12.0447 7.51718 12.0556C7.49157 12.0666 7.46846 12.0826 7.44925 12.1028C7.43004 12.123 7.41514 12.1468 7.40544 12.1729C7.39575 12.1991 7.39146 12.2269 7.39286 12.2547C7.5058 14.4186 9.30525 16.1462 11.5 16.1462C13.6948 16.1462 15.4942 14.4186 15.6071 12.2547C15.6085 12.2269 15.6043 12.1991 15.5946 12.1729C15.5849 12.1468 15.57 12.123 15.5507 12.1028C15.5315 12.0826 15.5084 12.0666 15.4828 12.0556C15.4572 12.0447 15.4296 12.039 15.4018 12.0391Z" fill="#191919"/>
</svg>
