<svg width="22" height="27" viewBox="0 0 22 27" fill="none" xmlns="http://www.w3.org/2000/svg">
<path d="M19.9359 16.6959C21.3055 16.0657 22 14.3802 22 11.6875C22 8.99479 21.3055 7.30927 19.9359 6.67906C18.3722 5.95833 16.2692 6.85094 14.4359 8.03115C15.5467 6.09125 16.3857 3.85458 15.7084 2.19313C15.1207 0.737917 13.5343 0 11 0C8.46569 0 6.87931 0.737917 6.28618 2.19313C5.60892 3.85458 6.44794 6.08896 7.55873 8.03687C5.73402 6.85094 3.62784 5.95833 2.06412 6.67906C0.69451 7.30927 0 8.99479 0 11.6875C0 14.3802 0.69451 16.0657 2.06412 16.6959C2.46115 16.8741 2.88846 16.9634 3.31941 16.9583C4.65882 16.9583 6.18804 16.233 7.5598 15.345C6.44794 17.2849 5.60784 19.5227 6.28618 21.1887C6.87931 22.6371 8.46569 23.375 11 23.375C13.5343 23.375 15.1207 22.6371 15.7138 21.1819C16.0374 20.4004 16.0147 19.4906 15.7915 18.5465C17.1525 20.633 18.4034 23.0714 18.9998 25.6048C19.0349 25.7534 19.1157 25.8853 19.2294 25.9796C19.3431 26.0738 19.4832 26.125 19.6275 26.125C19.6805 26.125 19.7334 26.1181 19.7849 26.1044C19.8673 26.0824 19.9449 26.0434 20.0131 25.9896C20.0814 25.9358 20.1389 25.8682 20.1826 25.7908C20.2263 25.7133 20.2551 25.6275 20.2676 25.5381C20.28 25.4488 20.2758 25.3578 20.2551 25.2702C19.4398 21.8052 17.5375 18.574 15.7063 16.0806C16.7114 16.5974 17.7424 16.9549 18.6806 16.9549C19.1113 16.961 19.5386 16.8729 19.9359 16.6959ZM7.47353 2.73969C7.84343 1.83333 9.02971 1.375 11 1.375C12.9703 1.375 14.1566 1.83333 14.5265 2.73969C14.9471 3.77094 14.4068 5.58708 13.0048 7.85125C12.392 8.82957 11.7224 9.76638 11 10.6562C10.2777 9.76749 9.60812 8.83183 8.9952 7.85469C7.59324 5.58708 7.05294 3.77094 7.47353 2.73969ZM2.57853 15.4344C1.72549 15.0414 1.29412 13.7809 1.29412 11.6875C1.29412 9.59406 1.72549 8.33365 2.57853 7.94063C2.81798 7.83693 3.07492 7.78662 3.33343 7.79281C4.33206 7.79281 5.7351 8.39781 7.39373 9.5574C8.31318 10.2084 9.19346 10.9198 10.0294 11.6875C9.19311 12.4552 8.31247 13.1666 7.39265 13.8176C5.25843 15.3072 3.54912 15.8812 2.57853 15.4344ZM14.5265 20.6353C14.1566 21.5417 12.9703 22 11 22C9.02971 22 7.84343 21.5417 7.47353 20.6353C7.05294 19.6041 7.59324 17.7879 8.9952 15.5238C9.60778 14.5453 10.2774 13.6084 11 12.7188C11.7225 13.6073 12.3921 14.543 13.0048 15.5203C14.4068 17.7879 14.9471 19.6029 14.5265 20.6353ZM14.6106 13.8176C13.6897 13.1667 12.8079 12.4553 11.9706 11.6875C12.8069 10.9198 13.6875 10.2084 14.6074 9.5574C16.7383 8.06781 18.4476 7.4949 19.4182 7.94063C20.2745 8.33365 20.7059 9.59406 20.7059 11.6875C20.7059 13.7809 20.2745 15.0414 19.4215 15.4344C18.4509 15.8812 16.7416 15.3072 14.6106 13.8176Z" fill="#191919"/>
</svg>
